<?xml version="1.0" encoding="utf-8"?>
<!-- Generator: Adobe Illustrator 15.0.0, SVG Export Plug-In  -->
<!DOCTYPE svg PUBLIC "-//W3C//DTD SVG 1.1//EN" "http://www.w3.org/Graphics/SVG/1.1/DTD/svg11.dtd" [
	<!ENTITY ns_flows "http://ns.adobe.com/Flows/1.0/">
]>
<svg version="1.1"
	 xmlns="http://www.w3.org/2000/svg" xmlns:xlink="http://www.w3.org/1999/xlink" xmlns:a="http://ns.adobe.com/AdobeSVGViewerExtensions/3.0/"
	 x="0px" y="0px" width="479px" height="465px" viewBox="0 -8.792 479 465"
	 overflow="visible" enable-background="new 0 -8.792 479 465" xml:space="preserve">
<defs>
</defs>
<path id="path4308_2_" fill="#231F20" d="M160.433,311.062c-1.813,0.758-4.735,1.285-7.477,1.285
	c-7.887,0-12.559-4.967-12.559-12.854c0-8.826,5.483-13.086,12.496-13.086c3.216,0,5.726,0.707,7.476,1.455l1.877-7.002
	c-1.582-0.822-5.083-1.762-9.701-1.762c-11.916,0-21.501,7.424-21.501,20.856c0,11.282,7.012,19.805,20.626,19.805
	c4.734,0,8.467-0.93,10.049-1.688L160.433,311.062L160.433,311.062z"/>
<path id="path4312_2_" fill="#231F20" d="M182.846,312.698c-5.958,0-9.522-5.779-9.522-13.203c0-7.359,3.448-13.318,9.575-13.318
	c6.137,0,9.469,6.074,9.469,13.142c0,7.719-3.448,13.381-9.469,13.381L182.846,312.698L182.846,312.698z M182.551,319.761
	c11.515,0,19.287-7.76,19.287-20.742c0-10.86-6.611-19.918-18.696-19.918c-11.568,0-19.17,8.826-19.17,20.625
	c0,11.209,6.896,20.035,18.527,20.035H182.551L182.551,319.761z"/>
<path id="path4316_2_" fill="#231F20" d="M207.656,279.749v21.965c0,12.506,5.789,18.054,15.712,18.054
	c10.292,0,16.418-5.779,16.418-17.938v-22.08h-8.879v22.606c0,7.013-2.573,10.281-7.244,10.281c-4.502,0-7.128-3.447-7.128-10.281
	v-22.606H207.656L207.656,279.749z"/>
<path id="path4320_2_" fill="#231F20" d="M255.652,319.124V307.26c0-6.422-0.117-11.979-0.411-17.229h0.231
	c1.866,4.619,4.504,9.639,6.844,13.908l8.414,15.186h9.344v-39.376h-8.184v11.453c0,5.957,0.18,11.271,0.707,16.471h-0.115
	c-1.814-4.438-4.092-9.354-6.435-13.498l-8.172-14.426H247.48v39.375H255.652z"/>
<path id="path4324_2_" fill="#231F20" d="M295.419,319.124h8.879v-31.897h10.757v-7.478h-30.275v7.478h10.641L295.419,319.124
	L295.419,319.124z"/>
<path id="path4328_2_" fill="#231F20" d="M339.568,319.124v-16.418l12.971-22.957h-9.986l-3.975,9.459
	c-1.172,2.806-2.109,5.082-2.975,7.539h-0.125c-0.939-2.572-1.806-4.67-3.037-7.539l-3.978-9.459h-10.217L330.69,303v16.123H339.568
	L339.568,319.124z"/>
<path id="path4332_2_" fill="#231F20" d="M101.254,260.708h8.646l-2.109-39.375H96.108l-4.144,13.086
	c-1.339,4.438-2.689,9.574-3.733,14.142h-0.242c-0.875-4.619-2.046-9.521-3.332-14.025l-3.849-13.201H68.945l-2.51,39.375h8.235
	l0.759-14.953c0.232-4.914,0.475-10.988,0.644-16.303h0.116c0.991,5.199,2.278,10.746,3.564,15.428l4.208,15.184h6.949l4.798-15.362
	c1.519-4.619,3.153-10.229,4.439-15.248h0.116c0,5.789,0.168,11.45,0.348,16.176L101.254,260.708L101.254,260.708z"/>
<path id="path4336_2_" fill="#231F20" d="M116.71,221.331v21.967c0,12.506,5.778,18.054,15.712,18.054
	c10.281,0,16.418-5.779,16.418-17.938v-22.082h-8.878v22.608c0,7.013-2.573,10.281-7.245,10.281c-4.502,0-7.128-3.449-7.128-10.281
	v-22.608H116.71L116.71,221.331z"/>
<path id="path4340_2_" fill="#231F20" d="M156.585,260.708h24.538v-7.478h-15.659v-31.897h-8.879V260.708z"/>
<path id="path4344_2_" fill="#231F20" d="M187.879,260.708h8.879v-31.899h10.755v-7.477H177.25v7.477h10.629V260.708z"/>
<path id="path4348_2_" fill="#231F20" d="M220.406,260.708v-11.863c0-6.422-0.116-11.979-0.412-17.229h0.232
	c1.877,4.619,4.502,9.639,6.843,13.908l8.404,15.186h9.354v-39.375h-8.183v11.451c0,5.959,0.179,11.273,0.707,16.473h-0.116
	c-1.813-4.441-4.091-9.354-6.432-13.498l-8.172-14.426h-10.408v39.375L220.406,260.708L220.406,260.708z"/>
<path id="path4352_2_" fill="#231F20" d="M269.576,254.282c-5.957,0-9.521-5.779-9.521-13.203c0-7.359,3.448-13.318,9.586-13.318
	c6.127,0,9.457,6.074,9.457,13.14c0,7.719-3.447,13.383-9.457,13.383L269.576,254.282L269.576,254.282z M269.281,261.345
	c11.516,0,19.287-7.762,19.287-20.742c0-10.86-6.603-19.919-18.696-19.919c-11.567,0-19.159,8.826-19.159,20.626
	c0,11.209,6.885,20.035,18.516,20.035H269.281L269.281,261.345z"/>
<path id="path4356_2_" fill="#231F20" d="M328.332,260.708h8.646l-2.099-39.375h-11.695l-4.145,13.086
	c-1.338,4.438-2.688,9.574-3.732,14.142h-0.241c-0.875-4.619-2.035-9.521-3.332-14.025l-3.851-13.201h-11.852l-2.521,39.375h8.235
	l0.76-14.953c0.242-4.914,0.474-10.988,0.644-16.303h0.115c0.991,5.199,2.289,10.746,3.563,15.428l4.207,15.184h6.949l4.799-15.362
	c1.508-4.619,3.151-10.229,4.438-15.248h0.117c0,5.789,0.168,11.45,0.348,16.176L328.332,260.708z"/>
<path id="path4360_2_" fill="#231F20" d="M354.188,243.941l2.396-8.352c0.59-2.289,1.223-5.262,1.76-7.604h0.17
	c0.58,2.276,1.285,5.262,1.931,7.604l2.444,8.352H354.188z M364.236,250.605l3.037,10.103h9.573l-12.264-39.375h-11.619
	l-12.043,39.375h9.238l2.74-10.103H364.236L364.236,250.605z"/>
<path id="path4364_2_" fill="#231F20" d="M382.141,221.331v39.375h8.879v-16.418h14.666v16.418h8.879v-39.375h-8.879v15.187H391.02
	v-15.187H382.141z"/>
<path id="path4376_2_" fill="#231F20" d="M214.826,96.346l24.612-45.364L215.765,3.287c-6.316-5.968-11.926-2.457-13.687,0
	l-84.877,153.882l37.645-9.501c24.201-6.664,37.877-10.872,62.784,1.75c0,0,21.744,12.285,52.608,0.707
	c0,0,22.799-12.274,50.162-4.208l46.461,13.793l-24.845-48.053c-21.036-6.306-39.626-15.775-70.491-2.805
	c0,0-29.705,14.9-60.675-2.805c-4.914-2.805-15.079-4.208-15.079-4.208l11.22-19.993L214.826,96.346L214.826,96.346z"/>
<path id="path4380_2_" fill="#231F20" d="M221.08,102.045l53.252-97.351c8.773-9.121,15.078-0.358,15.078-0.358l49.805,97.94
	c-17.885-5.61-26.037-9.785-51.291-5.578l-7.635-13.804l-9.754,17.547C251.238,107.106,243.878,107.654,221.08,102.045"/>
<path id="path4392_2_" fill="#231F20" d="M112.53,166.958l44.426-11.22c17.884-4.566,36.475-7.719,56.815,3.5
	c0,0,28.059,13.329,55.065,0c0,0,19.646-10.872,45.248-4.207l58.451,16.365l12.633,23.389c2.098,7.719-1.402,12.802-8.859,12.802
	l-266.814-0.18c-8.078,0.18-14.035-4.555-10.882-12.274L112.53,166.958L112.53,166.958z"/>
<path id="path4396_2_" fill="#008ED6" d="M119.661,177.074l43.604-11.167c12.632-4.207,31.919-1.75,41.041,1.751
	c0,0,31.919,19.645,71.199,1.402c0,0,17.179-11.916,61.023,3.859l27.385,8.71l7.57,13.16h-259.89L119.661,177.074L119.661,177.074z"
	/>
<path id="path4400_2_" fill="#9A9899" d="M239.201,93.949l42.148-75.585l34.219,65.157c-14.732-2.457-21.418-1.149-21.418-1.149
	l-13.508-25.771l-20.045,35.947C250.42,95.003,239.201,93.949,239.201,93.949"/>
<path id="path4404_2_" fill="#009147" stroke="#009147" stroke-width="2.6599" stroke-miterlimit="3.864" d="M239.201,93.949
	l42.148-75.585l34.219,65.157c-14.732-2.457-21.418-1.149-21.418-1.149l-13.508-25.771l-20.045,35.947
	C250.42,95.003,239.201,93.949,239.201,93.949z"/>
<path id="path4408_2_" fill="#9A9899" d="M175.075,113.766l32.615-58.218l7.782,14.436l10.608-18.707l-17.336-34.661
	l-67.339,121.614l18.707-4.587c27.712-6.665,35.42-5.968,54.717,2.098c0,0,26.298,16.134,57.871,1.055
	c0,0,24.896-13.329,55.412-1.055l14.5,4.502l-7.951-17.715c-18.938-5.61-29.113-11.916-56.119-3.5c0,0-23.853,8.763-35.071,8.763
	c0,0-17.188-0.696-28.061-6.306c0,0-8.763-7.719-29.462-8.066L175.075,113.766L175.075,113.766z"/>
<path id="path4412_2_" fill="#009147" stroke="#009147" stroke-width="2.6599" stroke-miterlimit="3.864" d="M175.075,113.766
	l32.615-58.218l7.782,14.436l10.608-18.707l-17.336-34.661l-67.339,121.614l18.707-4.587c27.712-6.665,35.42-5.968,54.717,2.098
	c0,0,26.298,16.134,57.871,1.055c0,0,24.896-13.329,55.412-1.055l14.5,4.502l-7.951-17.715c-18.938-5.61-29.113-11.916-56.119-3.5
	c0,0-23.853,8.763-35.071,8.763c0,0-17.188-0.696-28.061-6.306c0,0-8.763-7.719-29.462-8.066L175.075,113.766L175.075,113.766z"/>
<rect x="0.286" y="334.089" fill="none" width="479" height="26.667"/>
<text transform="matrix(1 0 0 1 150.0049 358.4644)" fill="#262728" font-family="'Roboto-Bold'" font-size="32">BRIDGE APP</text>
<rect y="388.758" fill="none" width="479" height="26.667"/>
<text transform="matrix(1 0 0 1 205.4629 397.8989)" fill="#434649" font-family="'Roboto-Bold'" font-size="12">available on:</text>
<path d="M249.195,419.778c-0.922,0-1.668,0.747-1.668,1.667l0.002,6.98c0,0.924,0.746,1.668,1.666,1.668
	c0.922,0,1.668-0.745,1.668-1.668v-6.981C250.863,420.524,250.115,419.777,249.195,419.778 M262.641,413.507l1.164-2.125
	c0.062-0.11,0.021-0.252-0.093-0.314c-0.114-0.062-0.253-0.021-0.313,0.093l-1.174,2.146c-0.99-0.439-2.098-0.688-3.269-0.686
	c-1.168-0.002-2.274,0.244-3.259,0.682l-1.178-2.141c-0.062-0.114-0.201-0.154-0.312-0.093c-0.113,0.061-0.154,0.202-0.092,0.312
	l1.164,2.124c-2.287,1.18-3.833,3.426-3.832,6.005l15.019-0.001C266.467,416.932,264.924,414.691,262.641,413.507 M255.54,416.792
	c-0.347,0-0.628-0.281-0.628-0.629c0-0.346,0.281-0.631,0.629-0.63c0.348-0.001,0.629,0.284,0.63,0.63
	S255.889,416.792,255.54,416.792 M262.379,416.791c-0.348,0-0.63-0.281-0.63-0.63c0.001-0.345,0.282-0.629,0.63-0.631
	c0.346,0.001,0.629,0.286,0.629,0.632C263.008,416.508,262.727,416.791,262.379,416.791 M251.51,420.091l0.002,10.82
	c-0.001,0.984,0.795,1.778,1.779,1.778h1.211l0.002,3.694c0,0.919,0.746,1.667,1.666,1.667s1.667-0.748,1.668-1.668l-0.002-3.693
	h2.252v3.693c0,0.919,0.748,1.668,1.667,1.667c0.921,0,1.667-0.748,1.667-1.669v-3.692h1.215c0.982,0,1.78-0.797,1.78-1.779
	l-0.003-10.82L251.51,420.091z M270.393,421.443c0-0.921-0.746-1.668-1.666-1.668c-0.922,0-1.668,0.748-1.668,1.668l0.002,6.981
	c0,0.922,0.746,1.667,1.666,1.667c0.922,0,1.666-0.745,1.668-1.668L270.393,421.443z"/>
<path d="M232.909,431.878c-0.423,0.979-0.924,1.877-1.504,2.704c-0.791,1.128-1.438,1.908-1.938,2.342
	c-0.773,0.711-1.603,1.075-2.49,1.098c-0.637,0-1.406-0.183-2.3-0.55c-0.898-0.366-1.723-0.548-2.477-0.548
	c-0.791,0-1.639,0.182-2.547,0.548c-0.908,0.367-1.64,0.56-2.2,0.578c-0.851,0.036-1.7-0.339-2.546-1.126
	c-0.541-0.472-1.217-1.278-2.027-2.425c-0.869-1.223-1.583-2.641-2.143-4.257c-0.599-1.746-0.9-3.438-0.9-5.073
	c0-1.874,0.405-3.491,1.217-4.847c0.638-1.089,1.486-1.947,2.548-2.577s2.209-0.951,3.444-0.973c0.677,0,1.563,0.21,2.665,0.619
	c1.099,0.413,1.804,0.622,2.113,0.622c0.231,0,1.015-0.243,2.343-0.731c1.256-0.452,2.317-0.64,3.185-0.565
	c2.354,0.19,4.122,1.118,5.298,2.789c-2.105,1.275-3.146,3.062-3.125,5.354c0.019,1.785,0.667,3.27,1.939,4.448
	c0.577,0.549,1.221,0.972,1.938,1.271C233.248,431.033,233.083,431.463,232.909,431.878L232.909,431.878z M227.511,410.636
	c0,1.398-0.511,2.705-1.53,3.915c-1.229,1.438-2.716,2.269-4.329,2.138c-0.021-0.168-0.032-0.346-0.032-0.53
	c0-1.344,0.584-2.781,1.623-3.956c0.518-0.595,1.178-1.09,1.977-1.484c0.798-0.389,1.552-0.604,2.262-0.641
	C227.502,410.263,227.511,410.452,227.511,410.636L227.511,410.636z"/>
</svg>
