<?xml version="1.0" encoding="utf-8"?>
<!-- Generator: Adobe Illustrator 15.0.0, SVG Export Plug-In  -->
<!DOCTYPE svg PUBLIC "-//W3C//DTD SVG 1.1//EN" "http://www.w3.org/Graphics/SVG/1.1/DTD/svg11.dtd" [
	<!ENTITY ns_flows "http://ns.adobe.com/Flows/1.0/">
]>
<svg version="1.1"
	 xmlns="http://www.w3.org/2000/svg" xmlns:xlink="http://www.w3.org/1999/xlink" xmlns:a="http://ns.adobe.com/AdobeSVGViewerExtensions/3.0/"
	 x="0px" y="0px" width="375px" height="100px" viewBox="-22.773 -5.264 375 100"
	 overflow="visible" enable-background="new -22.773 -5.264 375 100" xml:space="preserve">
<defs>
</defs>
<polygon fill="none" stroke="#020202" stroke-width="2.5" stroke-linecap="round" stroke-linejoin="round" stroke-miterlimit="3.85" points="
	114.883,66.456 114.915,66.364 115.099,65.905 115.099,65.875 115.158,65.75 115.465,64.617 115.526,64.342 115.526,64.281 
	115.526,64.187 115.526,64.156 115.526,63.974 115.526,63.911 115.526,63.881 115.588,63.819 115.619,63.79 115.648,63.73 
	115.709,63.544 115.955,62.839 115.955,62.808 115.985,62.778 116.046,62.502 116.046,62.412 116.079,62.195 116.109,62.074 
	116.262,61.459 116.2,61.154 116.139,61 116.079,60.94 116.046,60.91 116.046,60.879 116.079,60.817 116.17,60.695 116.17,60.664 
	116.231,60.574 116.262,60.574 116.323,60.478 116.384,60.418 116.416,60.389 116.63,60.328 116.659,60.328 116.752,60.236 
	116.783,60.204 116.874,60.082 117.12,59.623 117.487,58.885 117.61,58.58 117.916,57.844 118.101,57.292 118.193,56.989 
	118.222,56.893 118.406,56.127 118.498,55.762 118.59,55.393 118.621,55.242 118.621,55.178 118.621,55.117 118.713,54.872 
	118.775,54.627 118.928,53.953 119.111,53.097 119.143,53.002 119.234,52.481 119.265,52.298 119.295,52.147 119.295,52.116 
	119.325,51.93 119.325,51.87 119.418,51.38 119.54,50.613 119.602,50.276 119.663,49.695 119.663,49.664 119.663,49.632 
	119.692,49.388 119.724,49.357 119.786,48.897 119.846,48.499 119.846,48.468 119.876,48.316 119.876,48.285 119.876,48.041 
	119.846,47.978 119.846,47.947 119.876,47.794 119.908,47.702 119.999,47.243 120.03,46.814 120.03,46.693 120.091,46.231 
	120.153,45.742 120.153,45.648 120.091,45.619 120.091,45.588 120.091,45.557 120.091,45.405 120.091,45.375 120.153,45.19 
	120.183,45.128 120.183,45.037 120.183,44.945 120.245,44.792 120.305,44.699 120.429,44.086 120.429,44.055 120.551,43.351 
	120.582,43.29 120.642,43.259 120.704,43.228 120.735,43.167 120.704,43.106 120.673,43.077 120.612,43.106 120.582,42.954 
	120.612,42.616 120.612,42.373 120.582,42.217 120.612,42.002 120.673,41.635 120.704,41.512 120.796,40.871 120.828,40.593 
	120.828,40.534 120.858,40.288 120.858,40.226 120.704,40.288 120.704,40.256 120.673,40.226 120.888,40.073 120.919,40.073 
	120.919,39.919 120.95,39.797 120.95,39.736 121.011,39.491 121.011,39.337 121.011,39.306 120.98,39.306 120.98,39.276 
	120.888,39.091 120.95,38.908 120.98,38.785 120.98,38.723 121.041,38.234 120.98,37.835 120.95,37.775 120.95,37.744 
	120.888,37.682 120.888,37.589 120.888,37.56 120.919,37.499 120.919,37.469 120.919,37.406 120.919,37.253 120.95,37.131 
	120.98,37.008 121.011,36.825 121.041,36.732 121.072,36.702 121.072,36.67 121.133,36.641 121.194,36.641 121.194,36.61 
	121.255,36.457 121.285,36.304 121.47,35.629 121.562,35.231 121.562,35.2 121.562,35.078 121.593,34.986 121.593,34.863 
	121.686,34.465 121.716,34.434 121.716,34.342 121.747,34.282 121.776,34.036 121.776,34.006 121.808,33.822 121.868,33.485 
	121.899,33.362 121.899,33.332 121.899,33.3 121.838,33.332 121.747,33.27 121.776,33.086 121.776,33.024 121.776,32.995 
	121.838,32.842 121.899,32.719 122.083,32.596 122.083,32.565 122.113,32.473 122.266,31.799 122.298,31.768 122.328,31.554 
	122.39,30.971 122.42,30.88 122.359,30.634 122.42,30.329 122.42,30.176 122.481,29.87 122.511,29.624 122.511,29.47 
	122.542,29.041 122.481,28.828 122.451,28.704 122.39,28.673 122.298,28.673 122.053,28.704 122.053,28.643 122.236,28.582 
	122.266,28.582 122.359,28.552 122.39,28.552 122.39,28.52 122.451,28.428 122.451,28.399 122.511,28.214 122.573,27.939 
	122.603,27.51 122.635,27.447 122.635,27.234 122.635,27.141 122.635,26.927 122.603,26.896 122.542,26.62 122.542,26.56 
	122.511,26.283 122.573,26.223 122.635,26.223 122.727,25.947 122.788,25.702 122.849,25.273 122.88,25.212 122.88,25.089 
	122.849,25.058 122.788,24.966 122.849,24.751 122.88,24.537 122.91,24.353 123.002,23.802 123.033,23.618 123.063,23.557 
	123.063,22.821 123.063,22.791 123.063,22.76 123.063,22.637 123.063,22.545 123.033,22.514 123.033,22.392 122.94,22.269 
	122.817,22.085 122.788,22.025 122.697,21.964 122.635,21.933 122.635,21.809 122.788,21.595 122.91,20.737 122.91,20.431 
	122.91,20.4 122.91,20.216 122.91,20.033 122.91,19.911 122.91,19.726 122.91,19.603 122.88,19.542 122.788,19.236 122.635,19.083 
	122.635,18.991 122.91,18.624 123.002,18.562 123.033,18.562 123.063,18.53 123.216,18.53 123.247,18.53 123.278,18.5 
	123.278,18.47 123.34,18.317 123.37,18.132 123.37,18.102 123.4,18.01 123.4,17.98 123.4,17.887 123.4,17.827 123.4,17.704 
	123.4,17.643 123.4,17.49 123.4,17.397 123.4,17 123.308,16.57 123.278,16.447 123.278,16.326 123.247,16.294 123.216,16.141 
	123.186,15.958 123.156,15.864 123.125,15.804 123.094,15.743 123.002,15.437 122.972,15.376 122.972,15.344 122.88,15.1 
	122.788,14.854 122.697,14.67 122.635,14.546 122.481,14.456 122.635,14.333 122.727,14.333 122.788,14.365 122.88,14.546 
	122.849,14.64 122.88,14.762 122.94,14.791 123.156,14.823 123.278,14.885 123.308,14.885 123.553,15.1 123.553,15.13 
	123.707,15.284 123.769,15.466 123.92,15.528 124.288,15.651 124.288,15.681 124.319,15.681 124.442,15.62 124.473,15.498 
	124.473,15.466 124.442,15.466 124.351,15.376 124.257,15.284 124.228,15.284 124.197,15.191 124.228,15.16 124.411,15.13 
	124.534,15.13 124.688,15.16 124.718,15.16 125.024,15.068 125.085,15.038 125.269,14.978 125.393,14.915 125.484,14.945 
	125.668,15.038 125.913,15.068 125.974,15.068 126.249,14.915 126.341,14.885 126.372,14.823 126.433,14.791 126.556,14.791 
	126.771,14.854 126.832,14.823 126.893,14.67 126.923,14.546 126.953,14.517 127.046,14.487 127.138,14.487 127.198,14.546 
	127.229,14.579 127.354,14.67 127.782,14.365 127.782,14.18 127.903,14.18 128.027,14.119 128.149,14.088 128.302,14.026 
	128.547,14.057 128.608,14.088 128.67,14.119 128.701,14.18 128.884,14.365 129.039,14.609 129.099,14.702 129.099,14.791 
	129.039,15.466 129.682,16.05 129.772,16.05 130.109,16.08 130.447,16.111 130.692,16.111 130.999,15.958 131.244,15.804 
	131.458,15.711 131.979,15.466 132.499,15.528 132.53,15.528 132.653,15.651 133.235,16.05 133.327,16.172 133.419,16.202 
	133.542,16.294 133.573,16.294 133.694,16.355 133.725,16.386 133.756,16.386 134.093,16.754 134.184,16.876 134.43,17 
	134.46,17.03 134.552,17.06 134.828,17.212 135.012,17.581 135.042,17.612 135.073,17.827 135.104,18.072 135.318,18.317 
	135.318,18.347 135.532,18.899 135.563,18.961 135.777,19.204 135.777,19.328 135.839,19.665 135.777,19.972 135.777,20.001 
	135.809,20.063 135.809,20.093 135.839,20.156 135.9,20.369 135.932,20.431 135.963,20.493 135.963,20.523 136.053,20.707 
	136.053,20.769 136.053,20.859 136.053,20.982 136.023,21.074 135.9,21.382 135.9,21.627 136.176,22.085 136.176,22.117 
	136.207,22.117 136.269,22.454 136.269,22.852 136.237,22.944 136.114,23.403 136.114,23.495 136.085,23.709 136.207,24.077 
	136.207,24.107 136.482,24.292 136.543,24.323 136.574,24.323 136.758,24.415 137.003,24.629 137.188,24.721 137.523,24.875 
	137.923,24.905 137.954,24.905 137.984,24.935 138.168,24.966 138.228,24.997 138.597,25.119 138.628,25.119 138.872,25.243 
	139.055,25.303 139.178,25.334 139.209,25.334 139.24,25.364 139.363,25.395 139.393,25.426 139.424,25.426 139.455,25.456 
	139.608,25.609 139.638,25.609 139.791,25.67 140.036,25.64 140.129,25.609 140.219,25.547 140.281,25.547 140.343,25.518 
	140.435,25.487 140.464,25.487 140.557,25.518 140.772,25.609 140.987,25.947 141.415,26.04 141.721,26.04 141.783,26.04 
	141.936,25.977 142.456,25.732 142.67,25.518 143.161,25.426 143.284,25.426 143.315,25.456 143.468,25.456 143.591,25.426 
	144.234,25.027 144.479,24.935 144.694,24.935 144.938,24.844 144.969,24.812 145.153,24.69 145.245,24.506 145.275,24.475 
	145.459,24.506 145.612,24.415 145.765,24.353 145.827,24.292 145.858,24.23 145.858,24.077 146.133,23.832 146.164,23.832 
	146.256,23.74 146.349,23.709 146.562,23.618 146.87,23.526 147.175,23.618 147.726,23.74 148.033,23.74 148.4,23.618 
	148.46,23.586 148.799,23.586 148.891,23.586 149.656,23.373 149.963,23.25 149.993,23.25 150.115,23.281 150.238,23.312 
	150.362,23.341 150.422,23.403 150.484,23.434 150.546,23.495 150.758,23.68 151.004,23.74 151.22,23.802 151.464,23.802 
	151.771,23.649 151.863,23.649 152.016,23.649 152.169,23.618 152.444,23.709 152.66,23.862 152.721,23.925 153.15,24.047 
	153.546,24.169 153.64,24.415 153.701,24.537 153.731,24.781 153.761,24.844 153.731,24.997 153.731,25.058 153.884,25.212 
	154.038,25.212 154.069,25.212 154.314,25.212 154.375,25.149 154.375,25.119 154.467,25.18 154.559,25.089 154.59,25.058 
	154.62,25.027 154.59,24.966 154.987,24.568 155.232,24.475 155.57,24.506 155.876,24.475 155.937,24.506 156.121,24.568 
	156.182,24.537 156.489,24.445 156.581,24.445 156.887,24.69 156.917,24.69 157.103,24.659 157.407,24.353 157.561,24.2 
	157.776,24.138 158.327,23.955 159.032,23.649 159.431,23.495 159.645,23.281 159.828,23.158 160.042,23.036 160.532,23.005 
	160.87,23.127 160.962,23.22 161.298,23.586 161.483,23.74 161.542,23.771 161.758,23.832 162.616,23.771 163.474,23.586 
	163.903,23.434 163.995,23.403 164.791,23.341 165.22,22.76 165.556,22.577 166.354,22.392 167.119,21.964 167.15,21.933 
	167.517,21.749 168.162,21.687 168.499,21.565 168.591,21.565 169.325,21.351 169.662,21.382 170.152,21.319 170.796,21.196 
	171.287,20.462 171.316,20.431 171.562,20.186 171.898,20.093 172.298,20.278 172.419,20.369 172.816,20.4 173.246,20.216 
	173.463,20.186 174.075,20.125 174.196,20.125 174.289,20.093 174.626,19.972 174.657,19.941 174.778,19.911 175.392,19.818 
	175.759,19.911 176.097,20.001 176.372,20.001 176.678,19.941 176.862,19.911 177.229,19.726 177.566,19.48 177.965,19.298 
	178.147,19.144 178.394,18.807 178.485,18.807 178.884,18.776 179.375,18.776 179.895,18.776 180.201,18.745 180.232,18.745 
	180.601,18.745 181.825,18.715 182.04,18.715 182.255,18.715 182.286,18.715 182.622,18.715 182.806,18.685 182.93,18.685 
	182.96,18.685 183.021,18.685 183.203,18.685 183.326,18.685 183.388,18.685 183.417,18.685 183.848,18.685 184.125,18.653 
	184.645,18.653 184.89,18.653 185.073,18.653 185.166,18.653 185.289,18.653 185.532,18.624 185.595,18.624 185.87,18.624 
	186.205,18.624 186.513,18.624 186.575,18.593 186.728,18.593 186.82,18.593 187.737,18.562 187.922,18.562 187.954,18.562 
	189.393,18.53 189.607,18.5 189.698,18.5 190.16,18.5 190.374,18.5 192.52,18.44 193.773,18.408 194.877,18.378 195.152,18.378 
	195.216,18.378 195.612,18.347 196.165,18.317 196.562,18.347 196.746,18.286 197.39,18.286 197.726,18.256 197.758,18.256 
	198.095,18.256 198.124,18.256 198.86,18.225 199.504,18.194 199.718,18.194 199.934,18.194 200.668,18.164 201.158,18.164 
	201.433,18.164 201.496,18.256 201.709,18.47 201.772,18.715 201.923,18.93 201.923,18.991 201.984,19.268 202.047,19.389 
	202.077,19.48 202.109,19.542 202.139,19.573 202.321,19.757 202.477,19.848 202.597,19.941 202.658,19.972 202.873,20.278 
	202.873,20.309 202.936,20.4 202.965,20.493 202.965,20.553 202.965,20.616 202.965,20.676 202.965,20.707 203.026,20.798 
	203.271,20.921 203.303,20.921 203.361,20.921 203.361,20.891 203.395,20.891 203.425,20.859 203.458,20.859 203.458,20.829 
	203.486,20.829 203.519,20.798 203.519,20.769 203.548,20.769 203.577,20.769 203.792,20.737 203.823,20.737 203.854,20.737 
	203.854,20.769 203.976,20.829 204.008,20.829 204.131,21.043 204.19,21.259 204.223,21.259 204.375,21.441 204.436,21.441 
	204.589,21.441 204.682,21.412 204.71,21.382 204.742,21.351 205.049,21.412 205.171,21.441 205.202,21.441 205.386,21.627 
	205.601,21.809 205.662,21.809 205.692,21.84 205.722,21.84 205.722,21.871 205.755,21.933 205.845,22.085 205.877,22.117 
	205.845,22.423 205.877,22.729 205.905,22.791 205.998,22.944 206.029,23.005 206.06,23.036 206.182,23.127 206.396,23.341 
	206.429,23.373 206.459,23.434 206.52,23.586 206.55,23.586 206.55,23.649 206.582,23.709 206.611,23.74 206.643,23.832 
	206.703,23.894 206.733,23.925 206.766,23.955 206.766,23.985 206.766,24.169 206.766,24.2 206.766,24.23 206.582,24.599 
	206.488,24.629 206.396,24.721 206.366,24.781 206.244,24.935 206.152,25.119 206.029,25.456 205.938,25.64 205.905,25.702 
	205.845,25.886 205.814,26.161 205.814,26.193 205.845,26.314 205.877,26.467 205.783,26.498 205.755,26.498 205.632,26.651 
	205.569,26.682 205.508,26.773 205.508,26.804 205.479,27.05 205.418,27.295 205.263,27.478 205.202,27.541 205.112,27.694 
	204.957,28.031 204.834,28.307 204.651,28.766 204.62,28.888 204.682,29.164 204.682,29.287 204.682,29.379 204.682,29.408 
	204.651,29.501 204.651,29.532 204.589,29.593 204.528,29.655 204.467,29.716 204.436,29.87 204.375,30.114 204.312,30.42 
	204.312,30.452 204.344,30.605 204.312,30.696 204.19,31.187 204.19,31.34 204.161,31.647 204.131,31.676 204.131,31.707 
	203.885,32.135 203.671,32.291 203.577,32.442 203.577,32.473 203.577,32.565 203.577,32.719 203.577,32.75 203.577,32.78 
	203.425,33.024 203.303,33.177 203.149,33.393 203.088,33.422 202.965,33.516 202.903,33.638 202.903,33.699 202.936,33.76 
	202.936,33.974 202.936,34.006 202.812,34.25 202.812,34.313 202.812,34.342 202.812,34.372 202.903,34.648 202.903,34.68 
	202.965,34.771 203.088,34.956 203.149,35.047 203.149,35.078 203.118,35.14 203.058,35.2 203.026,35.353 202.995,35.507 
	202.965,35.689 202.936,35.784 202.903,35.906 202.812,36.058 202.597,36.273 202.477,36.457 202.414,36.579 202.384,36.61 
	202.384,36.67 202.23,37.008 202.139,37.101 202.109,37.162 202.077,37.253 202.077,37.284 202.077,37.314 202.109,37.376 
	202.109,37.406 202.109,37.437 202.077,37.499 202.047,37.499 201.923,37.589 201.709,37.652 201.679,37.682 201.647,37.682 
	201.588,37.775 201.496,37.866 201.465,37.898 201.433,37.928 201.372,37.958 201.311,37.958 201.281,37.958 201.22,37.958 
	201.188,37.958 200.912,38.113 200.852,38.173 200.821,38.204 200.668,38.45 200.698,38.542 200.698,38.785 200.668,38.846 
	200.576,38.876 200.516,39.031 200.484,39.123 200.484,39.154 200.484,39.183 200.393,39.398 200.331,39.459 200.331,39.583 
	200.36,39.674 200.331,39.859 200.208,40.073 200.146,40.104 200.115,40.195 200.085,40.288 200.085,40.348 200.055,40.624 
	200.055,40.777 200.055,40.808 199.962,40.929 199.9,40.961 199.871,40.992 199.81,41.022 199.81,41.084 199.81,41.144 
	199.871,41.207 199.871,41.39 199.81,41.542 199.779,41.606 199.687,41.729 199.597,41.759 199.441,41.789 199.412,41.849 
	199.35,41.942 199.35,42.002 199.35,42.034 199.32,42.095 199.32,42.157 199.258,42.28 199.167,42.373 199.135,42.401 
	199.073,42.373 199.011,42.401 198.983,42.432 198.983,42.493 198.951,42.493 198.983,42.524 198.983,42.556 198.983,42.584 
	199.011,42.646 199.073,42.801 199.106,42.892 199.106,42.983 199.135,43.32 199.106,43.413 199.011,43.627 199.011,43.658 
	198.922,43.781 198.831,43.81 198.831,43.904 198.922,44.177 199.011,44.27 199.135,44.394 199.227,44.424 199.258,44.455 
	199.382,44.576 199.382,44.608 199.473,44.76 199.473,44.792 199.441,44.853 199.441,44.883 199.32,45.128 199.32,45.159 
	199.198,45.19 199.198,45.221 199.167,45.221 199.135,45.343 199.135,45.375 199.135,45.405 199.198,45.527 199.412,45.771 
	199.473,45.803 199.748,45.987 199.9,45.987 200.055,45.987 200.115,45.957 200.146,45.894 200.179,45.894 200.179,45.833 
	200.179,45.803 200.301,45.648 200.331,45.648 200.36,45.619 200.393,45.619 200.452,45.619 200.484,45.619 200.516,45.619 
	200.546,45.68 200.605,45.742 200.605,45.771 200.668,45.924 200.668,45.957 200.821,46.079 200.852,46.109 200.942,46.171 
	201.036,46.262 201.066,46.385 201.096,46.385 201.127,46.415 201.158,46.415 201.158,46.385 201.188,46.385 201.188,46.354 
	201.22,46.171 201.311,46.109 201.343,46.079 201.402,46.079 201.465,46.109 201.527,46.109 201.709,46.109 201.862,46.109 
	201.923,46.109 201.984,46.14 202.015,46.202 202.015,46.231 202.047,46.262 202.047,46.292 202.015,46.415 202.047,46.693 
	202.077,46.874 202.109,46.907 202.139,46.907 202.353,46.966 202.384,46.936 202.414,46.907 202.445,46.907 202.477,46.907 
	202.597,46.936 202.873,47.119 202.903,47.15 202.965,47.243 202.995,47.397 202.995,47.425 202.995,47.458 202.965,47.519 
	202.965,47.55 202.783,47.916 202.75,47.978 202.75,48.01 202.628,48.254 202.628,48.285 202.566,48.407 202.536,48.437 
	202.507,48.468 202.477,48.499 202.445,48.499 202.321,48.56 202.199,48.56 202.139,48.59 202.109,48.621 202.077,48.652 
	202.077,48.683 202.077,48.713 202.109,48.927 202.109,48.99 202.139,49.082 202.139,49.172 202.139,49.234 202.17,49.234 
	202.353,49.328 202.414,49.388 202.507,49.417 202.566,49.541 202.597,49.602 202.628,49.632 202.628,49.664 202.597,49.815 
	202.566,49.97 202.566,50.032 202.536,50.185 202.536,50.215 202.507,50.245 202.384,50.461 202.291,50.521 202.261,50.521 
	202.23,50.581 202.23,50.613 202.23,50.642 202.261,50.676 202.261,50.706 202.291,50.706 202.321,50.767 202.353,50.888 
	202.353,51.073 202.353,51.167 202.353,51.256 202.321,51.318 202.291,51.348 202.199,51.502 202.199,51.532 202.23,51.593 
	202.23,51.685 202.23,51.716 202.199,51.93 202.199,51.993 202.17,52.116 202.17,52.147 202.139,52.175 202.109,52.175 
	202.077,52.206 202.015,52.175 201.984,52.175 201.955,52.206 201.923,52.206 201.862,52.235 201.802,52.268 201.802,52.331 
	201.772,52.391 201.741,52.576 201.679,52.696 201.679,52.727 201.679,52.757 201.679,52.821 201.709,53.035 201.709,53.097 
	201.709,53.127 201.709,53.157 201.709,53.586 201.741,53.862 201.741,54.291 201.741,54.321 201.772,54.596 201.772,54.719 
	201.772,54.934 201.802,55.086 201.802,55.149 201.802,55.209 201.802,55.393 201.832,55.914 201.832,56.038 201.832,56.098 
	201.832,56.16 201.832,56.252 201.832,56.404 201.832,56.435 201.832,56.497 201.862,56.528 201.862,56.774 201.862,56.833 
	201.862,56.989 201.923,58.367 201.955,58.98 202.015,60.114 202.047,61.339 202.077,61.521 202.077,61.952 202.199,64.647 
	202.23,65.598 202.384,69.091 202.507,71.941 202.507,72.003 202.566,73.135 202.69,75.924 202.721,76.26 202.721,76.783 
	202.75,76.997 202.844,79.323 202.844,79.355 202.844,79.846 202.873,80.091 202.936,81.959 202.783,81.991 202.69,81.991 
	202.597,81.991 202.445,81.991 202.291,81.991 201.281,82.02 200.912,82.053 200.791,82.053 200.668,82.053 198.46,82.174 
	197.972,82.174 197.236,82.207 196.96,82.236 196.225,82.267 195.949,82.267 195.919,82.267 195.829,82.267 195.797,82.267 
	195.735,82.267 195.429,82.296 192.978,82.36 192.855,82.39 192.701,82.39 189.885,82.482 188.996,82.512 187.218,82.572 
	186.391,82.605 185.379,82.635 184.186,82.698 183.05,82.756 182.102,82.756 181.855,82.756 179.405,82.788 176.952,82.849 
	176.678,82.818 176.433,82.849 175.575,82.849 175.146,82.849 174.135,82.849 170.767,82.881 170,82.849 169.294,82.881 
	169.02,82.881 168.988,82.881 167.672,82.91 167.517,82.94 167.487,82.91 165.617,82.94 165.342,82.94 165.22,82.94 164.087,82.971 
	163.627,82.971 161.542,82.971 161.483,82.971 161.453,82.971 161.36,82.971 160.104,82.971 159.798,82.971 159.246,82.971 
	157.837,82.94 157.745,82.94 157.01,82.94 155.171,82.94 154.467,82.91 154.069,82.881 152.629,82.881 152.629,82.849 
	152.597,82.849 151.893,82.849 151.8,82.849 151.587,82.849 151.525,82.881 151.28,82.849 151.097,82.849 150.484,82.849 
	150.392,82.849 150.33,82.849 150.238,82.849 149.38,82.818 148.676,82.788 148.46,82.788 148.432,82.788 147.542,82.756 
	147.36,82.756 147.175,82.726 147.144,82.726 145.765,82.698 145.704,82.698 145.49,82.666 143.651,82.635 142.456,82.572 
	141.812,82.542 141.753,82.542 141.415,82.542 140.557,82.512 140.219,82.512 139.271,82.452 139.147,82.452 139.025,82.452 
	138.934,82.452 138.566,82.452 137.708,82.421 136.329,82.452 136.114,82.452 135.164,82.421 134.124,82.39 133.297,82.39 
	133.235,82.39 133.02,82.39 132.438,82.36 132.193,82.36 131.212,82.329 130.968,82.296 130.753,82.267 130.018,82.207 
	129.896,82.207 129.466,82.236 129.007,82.236 127.598,82.267 127.566,82.267 127.198,82.267 126.556,82.207 125.791,82.174 
	125.759,82.174 125.576,82.174 125.484,82.174 125.423,82.174 125.332,82.174 125.178,82.174 124.319,82.146 124.228,82.146 
	123.92,82.207 123.063,82.146 122.328,82.115 122.053,82.115 121.96,82.115 121.808,82.115 120.214,82.02 119.815,82.02 
	119.602,81.991 118.805,81.959 118.775,81.959 118.651,81.959 118.621,81.959 118.314,81.93 117.304,81.869 117.272,81.746 
	116.997,81.471 116.936,81.378 116.69,81.132 116.659,81.072 116.537,81.072 116.507,81.072 116.447,81.072 116.416,81.042 
	116.354,81.011 116.293,80.979 116.139,80.704 116.139,80.672 116.109,80.642 115.833,80.276 115.68,79.939 115.68,79.876 
	115.742,79.693 115.742,79.602 115.709,79.51 115.648,79.449 115.588,79.323 115.588,79.234 115.619,79.234 115.68,79.171 
	115.68,78.865 115.588,78.744 115.526,78.712 115.526,78.681 115.496,78.622 115.526,78.407 115.496,78.344 115.496,78.253 
	115.436,78.131 115.342,78.007 115.129,77.733 115.129,77.67 115.158,77.581 115.22,77.303 115.22,77.273 115.189,76.813 
	115.099,76.66 114.975,76.415 115.005,76.383 115.036,76.107 115.067,75.709 115.067,75.679 115.067,75.405 115.067,75.371 
	115.067,75.128 115.067,75.005 115.005,74.76 115.005,74.698 115.158,74.362 115.158,74.084 115.189,73.871 115.342,73.536 
	115.496,73.104 115.619,72.706 115.619,72.555 115.588,72.4 115.526,72.186 115.557,71.879 115.526,71.727 115.436,71.237 
	115.373,71.175 115.22,71.081 115.099,70.992 115.005,70.929 114.975,70.899 115.036,70.776 115.036,70.745 115.036,70.684 
	114.915,70.409 114.761,70.011 114.729,69.95 114.578,69.858 114.546,69.858 114.484,69.858 114.484,69.887 114.361,69.95 
	114.332,69.95 114.301,69.95 114.301,69.918 114.301,69.858 114.271,69.644 114.271,69.613 114.209,69.061 114.148,68.816 
	114.087,68.663 113.994,68.508 113.933,68.233 113.994,68.11 114.056,67.988 114.148,67.866 114.606,67.038 114.822,66.546 
	114.853,66.516 "/>
<polyline fill="none" stroke="#020202" stroke-width="2.5" stroke-linecap="round" stroke-linejoin="round" stroke-miterlimit="3.85" points="
	114.883,66.456 114.915,66.364 115.099,65.905 115.099,65.875 115.158,65.75 115.465,64.617 115.526,64.342 115.526,64.281 
	115.526,64.187 115.526,64.156 115.526,63.974 115.526,63.911 115.526,63.881 115.588,63.819 115.619,63.79 115.648,63.73 
	115.709,63.544 115.955,62.839 115.955,62.808 115.985,62.778 116.046,62.502 116.046,62.412 116.079,62.195 116.109,62.074 
	116.262,61.459 116.2,61.154 116.139,61 116.079,60.94 116.046,60.91 116.046,60.879 116.079,60.817 116.17,60.695 116.17,60.664 
	116.231,60.574 116.262,60.574 116.323,60.478 116.384,60.418 116.416,60.389 116.63,60.328 116.659,60.328 116.752,60.236 
	116.783,60.204 116.874,60.082 117.12,59.623 117.487,58.885 117.61,58.58 117.916,57.844 118.101,57.292 118.193,56.989 
	118.222,56.893 118.406,56.127 118.498,55.762 118.59,55.393 118.621,55.242 118.621,55.178 118.621,55.117 118.713,54.872 
	118.775,54.627 118.928,53.953 119.111,53.097 119.143,53.002 119.234,52.481 119.265,52.298 119.295,52.147 119.295,52.116 
	119.325,51.93 119.325,51.87 119.418,51.38 119.54,50.613 119.602,50.276 119.663,49.695 119.663,49.664 119.663,49.632 
	119.692,49.388 119.724,49.357 119.786,48.897 119.846,48.499 119.846,48.468 119.876,48.316 119.876,48.285 119.876,48.041 
	119.846,47.978 119.846,47.947 119.876,47.794 119.908,47.702 119.999,47.243 120.03,46.814 120.03,46.693 120.091,46.231 
	120.153,45.742 120.153,45.648 120.091,45.619 120.091,45.588 120.091,45.557 120.091,45.405 120.091,45.375 120.153,45.19 
	120.183,45.128 120.183,45.037 120.183,44.945 120.245,44.792 120.305,44.699 120.429,44.086 120.429,44.055 120.551,43.351 
	120.582,43.29 120.642,43.259 120.704,43.228 120.735,43.167 120.704,43.106 120.673,43.077 120.612,43.106 120.582,42.954 
	120.612,42.616 120.612,42.373 120.582,42.217 120.612,42.002 120.673,41.635 120.704,41.512 120.796,40.871 120.828,40.593 
	120.828,40.534 120.858,40.288 120.858,40.226 120.704,40.288 120.704,40.256 120.673,40.226 120.888,40.073 120.919,40.073 
	120.919,39.919 120.95,39.797 120.95,39.736 121.011,39.491 121.011,39.337 121.011,39.306 120.98,39.306 120.98,39.276 
	120.888,39.091 120.95,38.908 120.98,38.785 120.98,38.723 121.041,38.234 120.98,37.835 120.95,37.775 120.95,37.744 
	120.888,37.682 120.888,37.589 120.888,37.56 120.919,37.499 120.919,37.469 120.919,37.406 120.919,37.253 120.95,37.131 
	120.98,37.008 121.011,36.825 121.041,36.732 121.072,36.702 121.072,36.67 121.133,36.641 121.194,36.641 121.194,36.61 
	121.255,36.457 121.285,36.304 121.47,35.629 121.562,35.231 121.562,35.2 121.562,35.078 121.593,34.986 121.593,34.863 
	121.686,34.465 121.716,34.434 121.716,34.342 121.747,34.282 121.776,34.036 121.776,34.006 121.808,33.822 121.868,33.485 
	121.899,33.362 121.899,33.332 121.899,33.3 121.838,33.332 121.747,33.27 121.776,33.086 121.776,33.024 121.776,32.995 
	121.838,32.842 121.899,32.719 122.083,32.596 122.083,32.565 122.113,32.473 122.266,31.799 122.298,31.768 122.328,31.554 
	122.39,30.971 122.42,30.88 122.359,30.634 122.42,30.329 122.42,30.176 122.481,29.87 122.511,29.624 122.511,29.47 
	122.542,29.041 122.481,28.828 122.451,28.704 122.39,28.673 122.298,28.673 122.053,28.704 122.053,28.643 122.236,28.582 
	122.266,28.582 122.359,28.552 122.39,28.552 122.39,28.52 122.451,28.428 122.451,28.399 122.511,28.214 122.573,27.939 
	122.603,27.51 122.635,27.447 122.635,27.234 122.635,27.141 122.635,26.927 122.603,26.896 122.542,26.62 122.542,26.56 
	122.511,26.283 122.573,26.223 122.635,26.223 122.727,25.947 122.788,25.702 122.849,25.273 122.88,25.212 122.88,25.089 
	122.849,25.058 122.788,24.966 122.849,24.751 122.88,24.537 122.91,24.353 123.002,23.802 123.033,23.618 123.063,23.557 
	123.063,22.821 123.063,22.791 123.063,22.76 123.063,22.637 123.063,22.545 123.033,22.514 123.033,22.392 122.94,22.269 
	122.817,22.085 122.788,22.025 122.697,21.964 122.635,21.933 122.635,21.809 122.788,21.595 122.91,20.737 122.91,20.431 
	122.91,20.4 122.91,20.216 122.91,20.033 122.91,19.911 122.91,19.726 122.91,19.603 122.88,19.542 122.788,19.236 122.635,19.083 
	122.635,18.991 122.91,18.624 123.002,18.562 123.033,18.562 123.063,18.53 123.216,18.53 123.247,18.53 123.278,18.5 
	123.278,18.47 123.34,18.317 123.37,18.132 123.37,18.102 123.4,18.01 123.4,17.98 123.4,17.887 123.4,17.827 123.4,17.704 
	123.4,17.643 123.4,17.49 123.4,17.397 123.4,17 123.308,16.57 123.278,16.447 123.278,16.326 123.247,16.294 123.216,16.141 
	123.186,15.958 123.156,15.864 123.125,15.804 123.094,15.743 123.002,15.437 122.972,15.376 122.972,15.344 122.88,15.1 
	122.788,14.854 122.697,14.67 122.635,14.546 122.481,14.456 122.635,14.333 122.727,14.333 122.788,14.365 122.88,14.546 
	122.849,14.64 122.88,14.762 122.94,14.791 123.156,14.823 123.278,14.885 123.308,14.885 123.553,15.1 123.553,15.13 
	123.707,15.284 123.769,15.466 123.92,15.528 124.288,15.651 124.288,15.681 124.319,15.681 124.442,15.62 124.473,15.498 
	124.473,15.466 124.442,15.466 124.351,15.376 124.257,15.284 124.228,15.284 124.197,15.191 124.228,15.16 124.411,15.13 
	124.534,15.13 124.688,15.16 124.718,15.16 125.024,15.068 125.085,15.038 125.269,14.978 125.393,14.915 125.484,14.945 
	125.668,15.038 125.913,15.068 125.974,15.068 126.249,14.915 126.341,14.885 126.372,14.823 126.433,14.791 126.556,14.791 
	126.771,14.854 126.832,14.823 126.893,14.67 126.923,14.546 126.953,14.517 127.046,14.487 127.138,14.487 127.198,14.546 
	127.229,14.579 127.354,14.67 127.782,14.365 127.782,14.18 127.903,14.18 128.027,14.119 128.149,14.088 128.302,14.026 
	128.547,14.057 128.608,14.088 128.67,14.119 128.701,14.18 128.884,14.365 129.039,14.609 129.099,14.702 129.099,14.791 
	129.039,15.466 129.682,16.05 129.772,16.05 130.109,16.08 130.447,16.111 130.692,16.111 130.999,15.958 131.244,15.804 
	131.458,15.711 131.979,15.466 132.499,15.528 132.53,15.528 132.653,15.651 133.235,16.05 133.327,16.172 133.419,16.202 
	133.542,16.294 133.573,16.294 133.694,16.355 133.725,16.386 133.756,16.386 134.093,16.754 134.184,16.876 134.43,17 
	134.46,17.03 134.552,17.06 134.828,17.212 135.012,17.581 135.042,17.612 135.073,17.827 135.104,18.072 135.318,18.317 
	135.318,18.347 135.532,18.899 135.563,18.961 135.777,19.204 135.777,19.328 135.839,19.665 135.777,19.972 135.777,20.001 
	135.809,20.063 135.809,20.093 135.839,20.156 135.9,20.369 135.932,20.431 135.963,20.493 135.963,20.523 136.053,20.707 
	136.053,20.769 136.053,20.859 136.053,20.982 136.023,21.074 135.9,21.382 135.9,21.627 136.176,22.085 136.176,22.117 
	136.207,22.117 136.269,22.454 136.269,22.852 136.237,22.944 136.114,23.403 136.114,23.495 136.085,23.709 136.207,24.077 
	136.207,24.107 136.482,24.292 136.543,24.323 136.574,24.323 136.758,24.415 137.003,24.629 137.188,24.721 137.523,24.875 
	137.923,24.905 137.954,24.905 137.984,24.935 138.168,24.966 138.228,24.997 138.597,25.119 138.628,25.119 138.872,25.243 
	139.055,25.303 139.178,25.334 139.209,25.334 139.24,25.364 139.363,25.395 139.393,25.426 139.424,25.426 139.455,25.456 
	139.608,25.609 139.638,25.609 139.791,25.67 140.036,25.64 140.129,25.609 140.219,25.547 140.281,25.547 140.343,25.518 
	140.435,25.487 140.464,25.487 140.557,25.518 140.772,25.609 140.987,25.947 141.415,26.04 141.721,26.04 141.783,26.04 
	141.936,25.977 142.456,25.732 142.67,25.518 143.161,25.426 143.284,25.426 143.315,25.456 143.468,25.456 143.591,25.426 
	144.234,25.027 144.479,24.935 144.694,24.935 144.938,24.844 144.969,24.812 145.153,24.69 145.245,24.506 145.275,24.475 
	145.459,24.506 145.612,24.415 145.765,24.353 145.827,24.292 145.858,24.23 145.858,24.077 146.133,23.832 146.164,23.832 
	146.256,23.74 146.349,23.709 146.562,23.618 146.87,23.526 147.175,23.618 147.726,23.74 148.033,23.74 148.4,23.618 
	148.46,23.586 148.799,23.586 148.891,23.586 149.656,23.373 149.963,23.25 149.993,23.25 150.115,23.281 150.238,23.312 
	150.362,23.341 150.422,23.403 150.484,23.434 150.546,23.495 150.758,23.68 151.004,23.74 151.22,23.802 151.464,23.802 
	151.771,23.649 151.863,23.649 152.016,23.649 152.169,23.618 152.444,23.709 152.66,23.862 152.721,23.925 153.15,24.047 
	153.546,24.169 153.64,24.415 153.701,24.537 153.731,24.781 153.761,24.844 153.731,24.997 153.731,25.058 153.884,25.212 
	154.038,25.212 154.069,25.212 154.314,25.212 154.375,25.149 154.375,25.119 154.467,25.18 154.559,25.089 154.59,25.058 
	154.62,25.027 154.59,24.966 154.987,24.568 155.232,24.475 155.57,24.506 155.876,24.475 155.937,24.506 156.121,24.568 
	156.182,24.537 156.489,24.445 156.581,24.445 156.887,24.69 156.917,24.69 157.103,24.659 157.407,24.353 157.561,24.2 
	157.776,24.138 158.327,23.955 159.032,23.649 159.431,23.495 159.645,23.281 159.828,23.158 160.042,23.036 160.532,23.005 
	160.87,23.127 160.962,23.22 161.298,23.586 161.483,23.74 161.542,23.771 161.758,23.832 162.616,23.771 163.474,23.586 
	163.903,23.434 163.995,23.403 164.791,23.341 165.22,22.76 165.556,22.577 166.354,22.392 167.119,21.964 167.15,21.933 
	167.517,21.749 168.162,21.687 168.499,21.565 168.591,21.565 169.325,21.351 169.662,21.382 170.152,21.319 170.796,21.196 
	171.287,20.462 171.316,20.431 171.562,20.186 171.898,20.093 172.298,20.278 172.419,20.369 172.816,20.4 173.246,20.216 
	173.463,20.186 174.075,20.125 174.196,20.125 174.289,20.093 174.626,19.972 174.657,19.941 174.778,19.911 175.392,19.818 
	175.759,19.911 176.097,20.001 176.372,20.001 176.678,19.941 176.862,19.911 177.229,19.726 177.566,19.48 177.965,19.298 
	178.147,19.144 178.394,18.807 178.485,18.807 178.884,18.776 179.375,18.776 179.895,18.776 180.201,18.745 180.232,18.745 
	180.601,18.745 181.825,18.715 182.04,18.715 182.255,18.715 182.286,18.715 182.622,18.715 182.806,18.685 182.93,18.685 
	182.96,18.685 183.021,18.685 183.203,18.685 183.326,18.685 183.388,18.685 183.417,18.685 183.848,18.685 184.125,18.653 
	184.645,18.653 184.89,18.653 185.073,18.653 185.166,18.653 185.289,18.653 185.532,18.624 185.595,18.624 185.87,18.624 
	186.205,18.624 186.513,18.624 186.575,18.593 186.728,18.593 186.82,18.593 187.737,18.562 187.922,18.562 187.954,18.562 
	189.393,18.53 189.607,18.5 189.698,18.5 190.16,18.5 190.374,18.5 192.52,18.44 193.773,18.408 194.877,18.378 195.152,18.378 
	195.216,18.378 195.612,18.347 196.165,18.317 196.562,18.347 196.746,18.286 197.39,18.286 197.726,18.256 197.758,18.256 
	198.095,18.256 198.124,18.256 198.86,18.225 199.504,18.194 199.718,18.194 199.934,18.194 200.668,18.164 201.158,18.164 
	201.433,18.164 201.496,18.256 201.709,18.47 201.772,18.715 201.923,18.93 201.923,18.991 201.984,19.268 202.047,19.389 
	202.077,19.48 202.109,19.542 202.139,19.573 202.321,19.757 202.477,19.848 202.597,19.941 202.658,19.972 202.873,20.278 
	202.873,20.309 202.936,20.4 202.965,20.493 202.965,20.553 202.965,20.616 202.965,20.676 202.965,20.707 203.026,20.798 
	203.271,20.921 203.303,20.921 203.361,20.921 203.361,20.891 203.395,20.891 203.425,20.859 203.458,20.859 203.458,20.829 
	203.486,20.829 203.519,20.798 203.519,20.769 203.548,20.769 203.577,20.769 203.792,20.737 203.823,20.737 203.854,20.737 
	203.854,20.769 203.976,20.829 204.008,20.829 204.131,21.043 204.19,21.259 204.223,21.259 204.375,21.441 204.436,21.441 
	204.589,21.441 204.682,21.412 204.71,21.382 204.742,21.351 205.049,21.412 205.171,21.441 205.202,21.441 205.386,21.627 
	205.601,21.809 205.662,21.809 205.692,21.84 205.722,21.84 205.722,21.871 205.755,21.933 205.845,22.085 205.877,22.117 
	205.845,22.423 205.877,22.729 205.905,22.791 205.998,22.944 206.029,23.005 206.06,23.036 206.182,23.127 206.396,23.341 
	206.429,23.373 206.459,23.434 206.52,23.586 206.55,23.586 206.55,23.649 206.582,23.709 206.611,23.74 206.643,23.832 
	206.703,23.894 206.733,23.925 206.766,23.955 206.766,23.985 206.766,24.169 206.766,24.2 206.766,24.23 206.582,24.599 
	206.488,24.629 206.396,24.721 206.366,24.781 206.244,24.935 206.152,25.119 206.029,25.456 205.938,25.64 205.905,25.702 
	205.845,25.886 205.814,26.161 205.814,26.193 205.845,26.314 205.877,26.467 205.783,26.498 205.755,26.498 205.632,26.651 
	205.569,26.682 205.508,26.773 205.508,26.804 205.479,27.05 205.418,27.295 205.263,27.478 205.202,27.541 205.112,27.694 
	204.957,28.031 204.834,28.307 204.651,28.766 204.62,28.888 204.682,29.164 204.682,29.287 204.682,29.379 204.682,29.408 
	204.651,29.501 204.651,29.532 204.589,29.593 204.528,29.655 204.467,29.716 204.436,29.87 204.375,30.114 204.312,30.42 
	204.312,30.452 204.344,30.605 204.312,30.696 204.19,31.187 204.19,31.34 204.161,31.647 204.131,31.676 204.131,31.707 
	203.885,32.135 203.671,32.291 203.577,32.442 203.577,32.473 203.577,32.565 203.577,32.719 203.577,32.75 203.577,32.78 
	203.425,33.024 203.303,33.177 203.149,33.393 203.088,33.422 202.965,33.516 202.903,33.638 202.903,33.699 202.936,33.76 
	202.936,33.974 202.936,34.006 202.812,34.25 202.812,34.313 202.812,34.342 202.812,34.372 202.903,34.648 202.903,34.68 
	202.965,34.771 203.088,34.956 203.149,35.047 203.149,35.078 203.118,35.14 203.058,35.2 203.026,35.353 202.995,35.507 
	202.965,35.689 202.936,35.784 202.903,35.906 202.812,36.058 202.597,36.273 202.477,36.457 202.414,36.579 202.384,36.61 
	202.384,36.67 202.23,37.008 202.139,37.101 202.109,37.162 202.077,37.253 202.077,37.284 202.077,37.314 202.109,37.376 
	202.109,37.406 202.109,37.437 202.077,37.499 202.047,37.499 201.923,37.589 201.709,37.652 201.679,37.682 201.647,37.682 
	201.588,37.775 201.496,37.866 201.465,37.898 201.433,37.928 201.372,37.958 201.311,37.958 201.281,37.958 201.22,37.958 
	201.188,37.958 200.912,38.113 200.852,38.173 200.821,38.204 200.668,38.45 200.698,38.542 200.698,38.785 200.668,38.846 
	200.576,38.876 200.516,39.031 200.484,39.123 200.484,39.154 200.484,39.183 200.393,39.398 200.331,39.459 200.331,39.583 
	200.36,39.674 200.331,39.859 200.208,40.073 200.146,40.104 200.115,40.195 200.085,40.288 200.085,40.348 200.055,40.624 
	200.055,40.777 200.055,40.808 199.962,40.929 199.9,40.961 199.871,40.992 199.81,41.022 199.81,41.084 199.81,41.144 
	199.871,41.207 199.871,41.39 199.81,41.542 199.779,41.606 199.687,41.729 199.597,41.759 199.441,41.789 199.412,41.849 
	199.35,41.942 199.35,42.002 199.35,42.034 199.32,42.095 199.32,42.157 199.258,42.28 199.167,42.373 199.135,42.401 
	199.073,42.373 199.011,42.401 198.983,42.432 198.983,42.493 198.951,42.493 198.983,42.524 198.983,42.556 198.983,42.584 
	199.011,42.646 199.073,42.801 199.106,42.892 199.106,42.983 199.135,43.32 199.106,43.413 199.011,43.627 199.011,43.658 
	198.922,43.781 198.831,43.81 198.831,43.904 198.922,44.177 199.011,44.27 199.135,44.394 199.227,44.424 199.258,44.455 
	199.382,44.576 199.382,44.608 199.473,44.76 199.473,44.792 199.441,44.853 199.441,44.883 199.32,45.128 199.32,45.159 
	199.198,45.19 199.198,45.221 199.167,45.221 199.135,45.343 199.135,45.375 199.135,45.405 199.198,45.527 199.412,45.771 
	199.473,45.803 199.748,45.987 199.9,45.987 200.055,45.987 200.115,45.957 200.146,45.894 200.179,45.894 200.179,45.833 
	200.179,45.803 200.301,45.648 200.331,45.648 200.36,45.619 200.393,45.619 200.452,45.619 200.484,45.619 200.516,45.619 
	200.546,45.68 200.605,45.742 200.605,45.771 200.668,45.924 200.668,45.957 200.821,46.079 200.852,46.109 200.942,46.171 
	201.036,46.262 201.066,46.385 201.096,46.385 201.127,46.415 201.158,46.415 201.158,46.385 201.188,46.385 201.188,46.354 
	201.22,46.171 201.311,46.109 201.343,46.079 201.402,46.079 201.465,46.109 201.527,46.109 201.709,46.109 201.862,46.109 
	201.923,46.109 201.984,46.14 202.015,46.202 202.015,46.231 202.047,46.262 202.047,46.292 202.015,46.415 202.047,46.693 
	202.077,46.874 202.109,46.907 202.139,46.907 "/>
<polyline fill="none" stroke="#020202" stroke-width="2.5" stroke-linecap="round" stroke-linejoin="round" stroke-miterlimit="3.85" points="
	202.139,46.907 202.353,46.966 202.384,46.936 202.414,46.907 202.445,46.907 202.477,46.907 202.597,46.936 202.873,47.119 
	202.903,47.15 202.965,47.243 202.995,47.397 202.995,47.425 202.995,47.458 202.965,47.519 202.965,47.55 202.783,47.916 
	202.75,47.978 202.75,48.01 202.628,48.254 202.628,48.285 202.566,48.407 202.536,48.437 202.507,48.468 202.477,48.499 
	202.445,48.499 202.321,48.56 202.199,48.56 202.139,48.59 202.109,48.621 202.077,48.652 202.077,48.683 202.077,48.713 
	202.109,48.927 202.109,48.99 202.139,49.082 202.139,49.172 202.139,49.234 202.17,49.234 202.353,49.328 202.414,49.388 
	202.507,49.417 202.566,49.541 202.597,49.602 202.628,49.632 202.628,49.664 202.597,49.815 202.566,49.97 202.566,50.032 
	202.536,50.185 202.536,50.215 202.507,50.245 202.384,50.461 202.291,50.521 202.261,50.521 202.23,50.581 202.23,50.613 
	202.23,50.642 202.261,50.676 202.261,50.706 202.291,50.706 202.321,50.767 202.353,50.888 202.353,51.073 202.353,51.167 
	202.353,51.256 202.321,51.318 202.291,51.348 202.199,51.502 202.199,51.532 202.23,51.593 202.23,51.685 202.23,51.716 
	202.199,51.93 202.199,51.993 202.17,52.116 202.17,52.147 202.139,52.175 202.109,52.175 202.077,52.206 202.015,52.175 
	201.984,52.175 201.955,52.206 201.923,52.206 201.862,52.235 201.802,52.268 201.802,52.331 201.772,52.391 201.741,52.576 
	201.679,52.696 201.679,52.727 201.679,52.757 201.679,52.821 201.709,53.035 201.709,53.097 201.709,53.127 201.709,53.157 
	201.709,53.586 201.741,53.862 201.741,54.291 201.741,54.321 201.772,54.596 201.772,54.719 201.772,54.934 201.802,55.086 
	201.802,55.149 201.802,55.209 201.802,55.393 201.832,55.914 201.832,56.038 201.832,56.098 201.832,56.16 201.832,56.252 
	201.832,56.404 201.832,56.435 201.832,56.497 201.862,56.528 201.862,56.774 201.862,56.833 201.862,56.989 201.923,58.367 
	201.955,58.98 202.015,60.114 202.047,61.339 202.077,61.521 202.077,61.952 202.199,64.647 202.23,65.598 202.384,69.091 
	202.507,71.941 202.507,72.003 202.566,73.135 202.69,75.924 202.721,76.26 202.721,76.783 202.75,76.997 202.844,79.323 
	202.844,79.355 202.844,79.846 202.873,80.091 202.936,81.959 202.783,81.991 202.69,81.991 202.597,81.991 202.445,81.991 
	202.291,81.991 201.281,82.02 200.912,82.053 200.791,82.053 200.668,82.053 198.46,82.174 197.972,82.174 197.236,82.207 
	196.96,82.236 196.225,82.267 195.949,82.267 195.919,82.267 195.829,82.267 195.797,82.267 195.735,82.267 195.429,82.296 
	192.978,82.36 192.855,82.39 192.701,82.39 189.885,82.482 188.996,82.512 187.218,82.572 186.391,82.605 185.379,82.635 
	184.186,82.698 183.05,82.756 182.102,82.756 181.855,82.756 179.405,82.788 176.952,82.849 176.678,82.818 176.433,82.849 
	175.575,82.849 175.146,82.849 174.135,82.849 170.767,82.881 170,82.849 169.294,82.881 169.02,82.881 168.988,82.881 
	167.672,82.91 167.517,82.94 167.487,82.91 165.617,82.94 165.342,82.94 165.22,82.94 164.087,82.971 163.627,82.971 
	161.542,82.971 161.483,82.971 161.453,82.971 161.36,82.971 160.104,82.971 159.798,82.971 159.246,82.971 157.837,82.94 
	157.745,82.94 157.01,82.94 155.171,82.94 154.467,82.91 154.069,82.881 152.629,82.881 152.629,82.849 152.597,82.849 
	151.893,82.849 151.8,82.849 151.587,82.849 151.525,82.881 151.28,82.849 151.097,82.849 150.484,82.849 150.392,82.849 
	150.33,82.849 150.238,82.849 149.38,82.818 148.676,82.788 148.46,82.788 148.432,82.788 147.542,82.756 147.36,82.756 
	147.175,82.726 147.144,82.726 145.765,82.698 145.704,82.698 145.49,82.666 143.651,82.635 142.456,82.572 141.812,82.542 
	141.753,82.542 141.415,82.542 140.557,82.512 140.219,82.512 139.271,82.452 139.147,82.452 139.025,82.452 138.934,82.452 
	138.566,82.452 137.708,82.421 136.329,82.452 136.114,82.452 135.164,82.421 134.124,82.39 133.297,82.39 133.235,82.39 
	133.02,82.39 132.438,82.36 132.193,82.36 131.212,82.329 130.968,82.296 130.753,82.267 130.018,82.207 129.896,82.207 
	129.466,82.236 129.007,82.236 127.598,82.267 127.566,82.267 127.198,82.267 126.556,82.207 125.791,82.174 125.759,82.174 
	125.576,82.174 125.484,82.174 125.423,82.174 125.332,82.174 125.178,82.174 124.319,82.146 124.228,82.146 123.92,82.207 
	123.063,82.146 122.328,82.115 122.053,82.115 121.96,82.115 121.808,82.115 120.214,82.02 119.815,82.02 119.602,81.991 
	118.805,81.959 118.775,81.959 118.651,81.959 118.621,81.959 118.314,81.93 117.304,81.869 117.272,81.746 116.997,81.471 
	116.936,81.378 116.69,81.132 116.659,81.072 116.537,81.072 116.507,81.072 116.447,81.072 116.416,81.042 116.354,81.011 
	116.293,80.979 116.139,80.704 116.139,80.672 116.109,80.642 115.833,80.276 115.68,79.939 115.68,79.876 115.742,79.693 
	115.742,79.602 115.709,79.51 115.648,79.449 115.588,79.323 115.588,79.234 115.619,79.234 115.68,79.171 115.68,78.865 
	115.588,78.744 115.526,78.712 115.526,78.681 115.496,78.622 115.526,78.407 115.496,78.344 115.496,78.253 115.436,78.131 
	115.342,78.007 115.129,77.733 115.129,77.67 115.158,77.581 115.22,77.303 115.22,77.273 115.189,76.813 115.099,76.66 
	114.975,76.415 115.005,76.383 115.036,76.107 115.067,75.709 115.067,75.679 115.067,75.405 115.067,75.371 115.067,75.128 
	115.067,75.005 115.005,74.76 115.005,74.698 115.158,74.362 115.158,74.084 115.189,73.871 115.342,73.536 115.496,73.104 
	115.619,72.706 115.619,72.555 115.588,72.4 115.526,72.186 115.557,71.879 115.526,71.727 115.436,71.237 115.373,71.175 
	115.22,71.081 115.099,70.992 115.005,70.929 114.975,70.899 115.036,70.776 115.036,70.745 115.036,70.684 114.915,70.409 
	114.761,70.011 114.729,69.95 114.578,69.858 114.546,69.858 114.484,69.858 114.484,69.887 114.361,69.95 114.332,69.95 
	114.301,69.95 114.301,69.918 114.301,69.858 114.271,69.644 114.271,69.613 114.209,69.061 114.148,68.816 114.087,68.663 
	113.994,68.508 113.933,68.233 113.994,68.11 114.056,67.988 114.148,67.866 114.606,67.038 114.822,66.546 114.853,66.516 
	114.883,66.456 "/>
<polygon fill="none" stroke="#231F20" stroke-width="2.5" stroke-linecap="round" stroke-linejoin="round" stroke-miterlimit="3.85" points="
	240.715,55.766 240.776,54.153 240.868,52.197 240.933,50.958 240.933,50.895 241.025,49.685 241.056,49.188 241.088,48.568 
	241.118,47.637 241.148,47.328 241.148,47.265 241.211,45.869 241.211,45.745 241.211,45.589 241.397,41.681 241.428,40.129 
	241.459,39.541 241.583,36.902 241.616,35.507 241.707,33.397 241.832,30.387 241.895,28.558 241.895,28.434 241.895,28.403 
	241.925,27.751 242.081,24.122 242.111,23.315 242.111,23.222 242.142,22.569 242.203,21.268 242.234,20.708 242.266,19.717 
	242.328,17.916 242.422,15.745 242.422,15.063 244.468,15.156 245.678,15.186 247.601,15.28 248.904,15.311 249.213,15.311 
	251.695,15.404 251.851,15.404 252.285,15.435 253.153,15.435 254.301,15.466 254.828,15.466 256.347,15.496 256.41,15.496 
	259.203,15.591 260.008,15.591 260.38,15.591 260.659,15.622 261.312,15.622 263.204,15.652 263.823,15.652 263.979,15.652 
	264.012,15.652 264.754,15.683 265.965,15.714 266.304,15.714 267.731,15.714 269.501,15.777 270.028,15.777 274.494,15.838 
	274.647,15.838 274.68,15.838 274.774,15.838 275.239,15.869 275.301,15.869 276.107,15.901 277.41,15.931 277.689,15.931 
	277.721,15.931 279.334,15.962 282.993,15.993 283.396,15.993 283.488,15.993 284.452,15.993 285.598,15.993 287.336,15.962 
	289.012,15.962 289.261,15.962 289.289,15.962 290.282,15.962 293.136,15.931 293.199,15.931 294.222,15.931 294.533,15.931 
	295.245,15.901 296.424,15.869 296.953,15.869 297.386,15.869 298.627,15.838 298.999,15.838 300.021,15.838 300.209,15.838 
	302.132,15.807 302.162,15.807 302.535,15.807 303.248,15.777 303.495,15.777 303.713,15.777 303.962,15.777 304.117,15.777 
	304.303,15.777 304.49,15.745 304.55,15.745 304.644,15.745 305.11,15.745 305.141,15.745 305.357,15.745 305.947,15.745 
	306.071,15.745 306.289,15.745 306.536,15.714 307.685,15.683 307.869,15.683 310.042,15.652 310.507,15.652 310.972,15.652 
	311.127,15.622 311.902,15.622 312.213,15.591 312.398,15.591 312.614,15.591 312.646,15.591 313.329,15.591 316.152,15.496 
	316.185,15.496 316.368,15.496 316.4,15.496 316.586,15.496 316.648,15.496 317.084,15.466 317.114,15.466 317.331,15.466 
	317.361,15.466 317.579,15.466 317.61,15.466 317.797,15.466 317.827,15.466 318.044,15.435 318.261,15.435 318.292,15.435 
	318.51,15.435 318.539,15.435 318.758,15.435 318.786,15.435 318.975,15.435 319.006,15.435 319.225,15.404 319.253,15.404 
	319.905,15.404 320,15.404 320.153,15.373 320.34,15.373 320.371,15.373 321.396,15.342 321.797,15.342 322.325,15.311 
	322.355,15.311 322.48,15.311 322.604,15.311 323.068,15.28 323.441,15.28 323.657,15.28 323.783,15.28 324.684,15.249 
	324.775,15.249 324.962,15.217 325.863,15.186 326.016,15.186 326.109,15.186 326.141,15.186 326.264,15.186 326.604,15.186 
	326.853,15.156 326.884,15.156 327.101,15.156 327.907,15.125 328.591,15.095 328.807,15.095 328.994,19.22 329.024,20.057 
	329.087,21.919 329.118,22.664 329.118,22.944 329.181,24.246 329.181,24.96 329.211,25.022 329.211,25.548 329.211,25.704 
	329.241,25.735 329.241,25.89 329.305,27.564 329.305,27.689 329.335,28.775 329.335,28.992 329.396,30.358 329.429,31.351 
	329.459,31.754 329.52,33.863 329.553,33.957 329.553,34.11 329.553,34.36 329.616,35.6 329.645,36.686 329.677,37.058 
	329.677,37.182 329.677,37.493 329.706,38.051 329.738,38.331 329.738,38.455 329.738,38.919 329.738,38.95 329.769,39.447 
	329.831,40.782 329.831,40.875 329.831,41.123 329.862,41.277 329.862,41.619 329.925,42.767 329.986,44.101 330.017,45.465 
	330.049,45.528 330.049,45.559 330.079,46.925 330.265,50.709 330.265,50.958 330.265,51.206 330.296,51.421 330.296,51.671 
	330.327,52.602 330.327,52.756 330.327,52.786 330.327,52.972 330.358,52.972 330.358,53.067 330.39,53.936 330.39,54.493 
	330.421,54.865 330.421,55.114 330.452,55.423 330.452,55.734 330.482,56.571 330.514,57.13 330.514,57.192 330.514,57.689 
	330.574,58.866 330.606,59.583 330.606,59.675 330.606,59.892 330.67,61.101 330.699,61.66 330.699,61.784 330.699,61.877 
	330.699,61.908 330.699,61.939 330.699,62.001 330.699,62.125 330.73,63.148 330.73,63.181 330.73,63.211 330.73,63.272 
	330.763,63.459 330.823,65.135 330.823,65.167 330.823,65.352 330.854,66.096 330.885,66.811 330.917,67.152 330.917,67.399 
	330.948,67.865 330.979,68.206 330.979,68.454 331.01,69.168 331.01,69.384 331.01,69.57 331.042,69.758 331.042,70.348 
	331.071,70.814 331.071,71.152 331.071,71.433 331.104,71.525 331.104,71.991 331.133,72.58 331.164,73.138 331.164,73.168 
	331.164,73.573 331.195,73.883 331.195,74.132 331.195,74.503 331.228,75.188 331.228,75.374 331.259,76.023 331.32,77.916 
	331.351,78.165 331.351,78.194 331.351,78.415 331.351,78.505 331.413,79.655 331.413,79.683 331.413,79.717 331.413,79.839 
	331.413,80.336 331.259,80.336 329.583,80.398 329.241,80.43 328.684,80.43 328.56,80.43 328.435,80.43 327.97,80.46 327.318,80.46 
	325.116,80.554 322.853,80.615 322.295,80.584 322.045,80.554 321.797,80.584 321.426,80.584 321.332,80.554 320.991,80.584 
	319.191,80.646 319.099,80.646 319.067,80.677 318.883,80.646 317.797,80.677 317.548,80.677 317.422,80.677 316.865,80.709 
	316.307,80.709 315.47,80.739 314.632,80.771 313.36,80.801 312.367,80.833 309.328,80.893 305.762,80.988 303.032,81.048 
	302.565,81.082 301.977,81.082 301.822,81.082 301.418,81.111 301.232,81.111 301.202,81.111 301.077,81.111 300.644,81.111 
	300.457,81.111 300.24,81.111 299.62,81.111 299.589,81.111 299.278,81.111 299.062,81.111 297.696,81.142 297.415,81.142 
	296.642,81.142 296.3,81.142 294.874,81.172 292.793,81.172 292.393,81.206 291.213,81.142 290.995,81.142 290.749,81.172 
	289.91,81.172 289.507,81.172 287.306,81.172 287.059,81.142 286.996,81.142 286.934,81.142 286.716,81.142 286.623,81.142 
	286.126,81.172 286.094,81.172 285.972,81.172 285.816,81.172 284.575,81.172 284.109,81.142 283.427,81.142 283.396,81.142 
	279.769,81.142 279.644,81.142 278.435,81.142 277.595,81.142 277.1,81.142 276.479,81.142 275.891,81.142 275.487,81.142 
	275.271,81.142 275.239,81.142 274.338,81.142 273.501,81.111 273.191,81.111 271.671,81.111 271.517,81.111 271.083,81.111 
	270.896,81.111 269.904,81.111 269.501,81.111 268.353,81.082 268.26,80.958 267.731,80.958 267.236,80.924 266.863,80.924 
	266.182,80.924 265.25,80.893 264.073,80.893 263.327,80.862 261.155,80.833 260.878,80.833 260.38,80.801 259.822,80.801 
	259.792,80.801 258.799,80.771 258.767,80.771 257.342,80.739 256.473,80.709 255.48,80.709 255.354,80.677 255.293,80.677 
	254.735,80.677 253.806,80.646 253.588,80.646 253.153,80.646 252.967,80.615 251.261,80.584 251.168,80.584 250.331,80.554 
	249.836,80.554 249.4,80.522 248.656,80.492 247.601,80.46 246.608,80.43 245.492,80.398 245.151,80.398 243.816,80.336 
	241.148,80.245 241.088,80.245 240.468,80.213 239.939,80.213 239.97,79.87 239.97,79.81 240.001,79.003 240.001,78.971 
	240.001,78.784 240.001,78.629 240.032,78.415 240.032,78.352 240.063,77.295 240.063,76.893 240.063,76.861 240.095,76.767 
	240.095,76.273 240.095,76.117 240.157,74.969 240.157,74.876 240.188,74.319 240.188,74.07 240.28,72.548 240.28,72.426 
	240.28,72.301 240.28,72.27 240.312,72.053 240.344,71.556 240.373,70.348 240.373,70.128 240.373,70.036 240.406,69.353 
	240.436,68.609 240.436,68.577 240.468,68.143 240.468,68.082 240.468,67.988 240.468,67.926 240.497,67.649 240.497,67.182 
	240.529,66.593 240.529,66.5 240.561,65.973 240.561,65.847 240.591,65.415 240.591,64.328 240.622,63.956 240.622,63.924 
	240.685,62.125 240.715,61.784 240.715,61.413 240.746,61.225 240.622,59.922 240.561,59.427 240.653,57.192 "/>
<polygon fill="none" stroke="#020202" stroke-width="2.5" stroke-linecap="round" stroke-linejoin="round" stroke-miterlimit="3.85" points="
	5.495,61.172 5.43,61.135 5.396,61.135 5.364,61.1 5.266,61.098 5.199,61.065 5.165,61.063 5.032,61.059 4.799,61.021 4.735,61.019 
	4.701,61.017 4.667,61.049 4.631,61.114 4.597,61.148 4.564,61.147 4.397,61.142 4.198,61.102 4.099,61.066 4.067,61.033 
	4.004,60.931 3.939,60.831 3.907,60.796 3.842,60.76 3.807,60.793 3.738,60.925 3.703,60.991 3.669,60.99 3.636,60.989 
	3.602,60.988 3.537,60.918 3.506,60.852 3.475,60.785 3.512,60.618 3.352,60.416 3.32,60.315 3.322,60.281 3.324,60.212 
	3.291,60.178 3.258,60.177 3.192,60.175 3.126,60.141 3.094,60.074 3.096,59.973 3.133,59.876 3.17,59.743 3.277,59.479 
	3.379,59.381 3.415,59.316 3.449,59.251 3.487,59.118 3.522,59.053 3.524,59.019 3.527,58.919 3.528,58.854 3.598,58.721 
	3.599,58.688 3.601,58.621 3.571,58.455 3.574,58.386 3.609,58.291 3.646,58.156 3.647,58.123 3.65,58.056 3.584,57.988 
	3.554,57.92 3.458,57.751 3.492,57.718 3.661,57.625 3.695,57.558 3.634,57.39 3.602,57.324 3.536,57.29 3.438,57.251 3.307,57.18 
	3.208,57.178 3.141,57.141 3.075,57.107 3.076,57.075 2.983,56.874 2.983,56.84 2.984,56.805 3.086,56.708 3.255,56.612 
	3.291,56.546 3.325,56.516 3.396,56.352 3.436,56.119 3.438,56.051 3.439,55.985 3.344,55.818 3.345,55.75 3.347,55.684 
	3.349,55.65 3.316,55.616 3.284,55.581 3.155,55.412 3.124,55.344 3.125,55.31 3.159,55.279 3.192,55.28 3.325,55.284 3.425,55.286 
	3.493,55.255 3.494,55.22 3.495,55.185 3.527,55.186 3.629,55.158 3.795,55.163 3.993,55.235 4.059,55.237 4.092,55.238 
	4.193,55.206 4.295,55.109 4.364,55.043 4.4,54.946 4.472,54.749 4.475,54.648 4.476,54.614 4.615,54.384 4.683,54.354 
	4.752,54.256 4.787,54.19 4.821,54.157 4.823,54.091 4.928,53.96 4.961,53.928 5.062,53.866 5.129,53.868 5.197,53.835 
	5.299,53.739 5.333,53.706 5.336,53.606 5.337,53.539 5.338,53.505 5.576,53.347 5.813,53.218 5.814,53.185 5.781,53.151 
	5.688,52.948 5.625,52.781 5.627,52.715 5.629,52.614 5.734,52.449 5.769,52.417 5.803,52.386 5.837,52.354 5.838,52.322 
	5.838,52.289 5.84,52.253 5.807,52.219 5.808,52.155 5.811,52.085 5.811,52.052 5.847,51.987 5.849,51.92 5.816,51.853 5.817,51.82 
	5.818,51.787 5.82,51.718 5.821,51.686 5.856,51.654 5.857,51.622 5.889,51.622 5.89,51.588 5.891,51.555 5.859,51.554 5.86,51.521 
	5.86,51.488 5.828,51.453 5.829,51.419 5.797,51.352 5.831,51.321 5.832,51.289 5.867,51.254 5.901,51.187 5.969,51.158 
	6.071,51.127 6.103,51.128 6.171,51.097 6.272,51.034 6.31,50.868 6.314,50.768 6.282,50.7 6.249,50.665 6.216,50.63 6.186,50.564 
	6.187,50.532 6.121,50.494 6.089,50.459 6.122,50.461 6.157,50.364 6.193,50.298 6.227,50.231 6.23,50.131 6.232,50.066 
	6.201,49.964 6.077,49.663 6.048,49.461 5.955,49.223 5.988,49.223 6.023,49.192 6.057,49.128 6.093,49.096 6.059,49.062 
	6.031,48.927 6.032,48.893 5.968,48.725 5.969,48.692 6.004,48.625 6.005,48.594 6.039,48.594 6.14,48.597 6.173,48.598 
	6.241,48.533 6.274,48.501 6.309,48.469 6.344,48.436 6.313,48.334 6.314,48.301 6.215,48.233 6.185,48.163 6.151,48.162 
	6.153,48.13 6.154,48.098 6.155,48.062 6.156,48.031 6.189,48 6.222,48 6.256,47.967 6.29,47.936 6.291,47.903 6.292,47.869 
	6.292,47.834 6.261,47.802 6.197,47.7 6.165,47.699 6.131,47.665 6.098,47.628 6.099,47.596 6.067,47.595 6,47.56 5.969,47.526 
	5.972,47.425 5.972,47.393 6.077,47.229 6.146,47.131 6.147,47.098 6.248,47.068 6.28,47.101 6.313,47.102 6.448,47.04 
	6.517,46.941 6.653,46.846 6.653,46.813 6.688,46.781 6.689,46.747 6.756,46.714 6.825,46.65 6.859,46.583 6.894,46.584 
	6.927,46.553 6.961,46.555 6.962,46.521 6.963,46.487 6.964,46.455 6.931,46.419 6.932,46.387 6.933,46.354 6.968,46.322 
	7.001,46.323 7.034,46.324 7.102,46.292 7.134,46.293 7.203,46.227 7.237,46.194 7.272,46.164 7.307,46.064 7.311,45.931 
	7.312,45.864 7.284,45.731 7.286,45.665 7.287,45.63 7.325,45.399 7.361,45.3 7.364,45.198 7.365,45.164 7.466,45.102 7.469,45.036 
	7.57,44.937 7.606,44.874 7.674,44.841 7.741,44.811 7.809,44.812 7.939,44.849 8.075,44.786 8.21,44.755 8.243,44.756 
	8.312,44.659 8.382,44.561 8.415,44.53 8.481,44.498 8.648,44.537 8.782,44.505 8.849,44.473 8.953,44.377 9.09,44.212 
	9.091,44.179 9.124,44.18 9.125,44.147 9.228,44.051 9.296,44.019 9.43,43.989 9.528,44.027 9.695,43.963 9.832,43.901 
	9.867,43.835 10.034,43.805 10.035,43.772 10.067,43.773 10.104,43.675 10.073,43.576 10.107,43.542 10.108,43.509 10.209,43.477 
	10.277,43.447 10.312,43.381 10.551,43.154 10.722,43.026 10.722,42.994 10.755,42.995 10.757,42.927 10.791,42.927 10.825,42.895 
	10.858,42.896 10.858,42.863 10.893,42.864 10.893,42.831 10.928,42.798 10.928,42.764 10.961,42.765 10.994,42.766 11.027,42.767 
	11.129,42.736 11.162,42.737 11.228,42.738 11.262,42.74 11.263,42.708 11.297,42.642 11.266,42.608 11.267,42.542 11.269,42.474 
	11.27,42.44 11.24,42.306 11.243,42.207 11.245,42.106 11.246,42.073 11.214,42.04 11.019,41.869 10.958,41.666 10.895,41.531 
	10.864,41.431 10.799,41.362 10.769,41.329 10.701,41.292 10.635,41.257 10.539,41.155 10.373,41.151 10.208,41.08 10.175,41.046 
	10.112,40.911 9.984,40.774 9.951,40.739 9.886,40.704 9.757,40.534 9.724,40.5 9.558,40.496 9.459,40.458 9.46,40.425 
	9.428,40.393 9.429,40.359 9.399,40.257 9.4,40.191 9.334,40.123 9.301,40.123 9.17,40.019 9.138,40.018 9.106,39.983 9.107,39.951 
	9.074,39.95 9.006,39.947 9.007,39.914 8.943,39.812 8.944,39.779 8.912,39.779 8.913,39.745 8.879,39.744 8.88,39.71 8.847,39.709 
	8.812,39.708 8.747,39.708 8.645,39.738 8.546,39.769 8.412,39.765 8.379,39.731 8.348,39.696 8.25,39.593 8.251,39.56 
	8.252,39.526 8.322,39.396 8.324,39.33 8.325,39.296 8.33,39.128 8.333,39.03 8.368,38.963 8.37,38.897 8.404,38.832 8.407,38.699 
	8.379,38.531 8.381,38.499 8.286,38.295 8.096,37.89 7.903,37.685 7.842,37.516 7.843,37.451 7.809,37.45 7.844,37.417 
	7.879,37.385 7.912,37.385 7.915,37.252 7.85,37.182 7.72,37.081 7.723,36.947 7.724,36.914 7.727,36.814 7.729,36.748 7.697,36.68 
	7.632,36.611 7.6,36.577 7.601,36.511 7.603,36.477 7.604,36.411 7.605,36.378 7.606,36.345 7.574,36.311 7.575,36.277 
	7.576,36.244 7.544,36.209 7.479,36.073 7.449,36.007 7.42,35.84 7.423,35.74 7.424,35.706 7.424,35.673 7.392,35.672 7.393,35.638 
	7.36,35.638 7.325,35.636 7.261,35.601 7.228,35.567 7.163,35.466 7.099,35.432 7.001,35.362 6.934,35.327 6.837,35.258 
	6.805,35.19 6.773,35.156 6.741,35.121 6.709,35.053 6.579,34.95 6.481,34.881 6.417,34.779 6.353,34.678 6.322,34.611 6.29,34.543 
	6.291,34.509 6.229,34.375 6.229,34.341 6.201,34.174 6.167,34.174 6.17,34.039 6.107,33.905 6.108,33.873 6.045,33.736 
	5.983,33.635 5.917,33.565 5.884,33.531 5.851,33.53 5.852,33.499 5.721,33.427 5.689,33.393 5.656,33.392 5.623,33.325 
	5.59,33.324 5.591,33.292 5.527,33.223 5.496,33.156 5.497,33.122 5.498,33.088 5.469,32.922 5.47,32.888 5.506,32.79 5.542,32.69 
	5.576,32.625 5.578,32.557 5.548,32.456 5.55,32.391 5.551,32.356 5.552,32.323 5.552,32.292 5.553,32.257 5.589,32.125 
	5.592,32.058 5.595,31.958 5.565,31.824 5.566,31.757 5.568,31.725 5.57,31.659 5.64,31.494 5.642,31.427 5.645,31.327 
	5.646,31.294 5.616,31.16 5.618,31.093 5.619,31.059 5.622,30.96 5.625,30.827 5.662,30.695 5.734,30.53 5.836,30.433 5.87,30.4 
	6.004,30.337 6.042,30.238 6.042,30.205 6.043,30.173 6.045,30.105 6.011,30.105 6.012,30.072 5.98,30.036 5.949,29.97 
	5.916,29.969 5.883,29.933 5.817,29.866 5.687,29.795 5.654,29.794 5.59,29.726 5.557,29.725 5.525,29.659 5.56,29.593 
	5.595,29.562 5.628,29.527 5.695,29.462 5.73,29.43 5.764,29.43 5.765,29.398 5.797,29.399 5.83,29.399 5.865,29.369 5.898,29.369 
	5.966,29.37 6.065,29.373 6.131,29.408 6.266,29.345 6.367,29.315 6.401,29.282 6.472,29.15 6.547,28.787 6.549,28.687 
	6.551,28.653 6.556,28.453 6.557,28.42 6.561,28.32 6.529,28.22 6.5,28.119 6.435,28.049 6.41,27.75 6.446,27.619 6.39,27.25 
	6.303,26.715 6.31,26.48 6.348,26.315 6.261,25.88 6.202,25.613 6.11,25.278 6.018,25.007 5.728,24.7 5.729,24.667 5.729,24.633 
	5.633,24.464 5.634,24.431 5.602,24.363 5.604,24.296 5.576,24.129 5.577,24.097 5.516,23.861 5.452,23.759 5.457,23.626 
	5.457,23.593 5.458,23.56 5.495,23.394 5.53,23.329 5.6,23.263 5.667,23.232 5.737,23.134 5.771,23.102 5.772,23.069 5.74,23.001 
	5.709,22.899 5.717,22.635 5.688,22.434 5.689,22.399 5.759,22.269 5.83,22.138 5.868,21.939 5.807,21.804 5.616,21.465 
	5.454,21.294 5.457,21.161 5.459,21.094 5.494,21.03 5.564,20.897 5.601,20.798 5.601,20.765 5.568,20.731 5.438,20.627 
	5.341,20.525 5.311,20.423 5.312,20.357 5.421,20.027 5.459,19.862 5.463,19.696 5.403,19.495 5.444,19.195 5.318,18.925 
	5.354,18.859 5.422,18.795 5.492,18.664 5.528,18.564 5.529,18.532 5.5,18.364 5.501,18.296 5.537,18.231 5.538,18.199 
	5.605,18.168 5.741,18.071 5.776,18.006 5.777,17.971 5.779,17.905 5.781,17.838 5.75,17.738 5.653,17.635 5.524,17.499 
	5.428,17.329 5.465,17.197 5.468,17.098 5.372,16.995 5.209,16.857 5.176,16.822 5.211,16.756 5.247,16.658 5.216,16.558 
	5.185,16.458 5.088,16.354 5.061,16.187 5.101,15.887 5.103,15.821 5.138,15.79 5.139,15.755 5.173,15.723 5.241,15.658 
	5.277,15.56 5.279,15.494 5.214,15.424 5.181,15.39 5.148,15.389 5.149,15.355 5.15,15.323 5.152,15.222 5.221,15.159 5.223,15.092 
	5.224,15.058 5.162,14.89 5.097,14.854 5.064,14.788 5.033,14.752 5.001,14.719 5.002,14.652 5.037,14.587 5.14,14.49 5.275,14.392 
	5.509,14.366 5.576,14.368 5.676,14.337 5.844,14.309 6.045,14.282 6.079,14.249 6.145,14.25 6.18,14.218 6.214,14.152 
	6.352,14.056 6.588,13.896 6.622,13.897 6.684,14.066 6.75,14.1 6.85,14.037 7.02,13.907 7.256,13.813 7.324,13.783 7.457,13.787 
	7.523,13.789 7.657,13.792 7.723,13.793 8.021,13.835 8.056,13.836 8.121,13.872 8.153,13.938 8.153,13.972 8.151,14.007 
	8.117,14.038 8.115,14.104 8.114,14.137 8.146,14.173 8.178,14.174 8.211,14.207 8.244,14.208 8.345,14.178 8.549,14.051 
	8.65,14.053 8.715,14.055 8.777,14.189 8.809,14.258 8.844,14.258 9.079,14.13 9.217,13.968 9.284,13.97 9.349,13.971 9.714,14.05 
	9.781,14.051 9.875,14.252 9.909,14.287 10.166,14.594 10.232,14.63 10.264,14.664 10.521,15.002 10.55,15.138 10.516,15.17 
	10.415,15.233 10.413,15.301 10.411,15.367 10.838,15.578 10.933,15.748 10.964,15.848 11.03,15.883 11.161,15.985 11.161,16.02 
	11.291,16.057 11.323,16.091 11.357,16.092 11.39,16.093 11.624,16.1 11.893,16.006 12.095,15.913 12.228,15.916 12.261,15.95 
	12.359,15.986 12.393,15.987 12.427,15.921 12.531,15.792 12.565,15.726 12.601,15.661 12.57,15.559 12.606,15.46 12.712,15.264 
	12.887,14.935 12.922,14.902 12.857,14.833 12.792,14.799 12.792,14.765 12.794,14.7 12.83,14.634 12.963,14.57 13.064,14.573 
	13.099,14.541 13.24,14.212 13.451,13.851 13.554,13.688 13.624,13.555 13.826,13.494 13.828,13.428 13.848,12.695 13.85,12.629 
	13.857,12.362 13.866,12.03 13.911,11.63 13.915,11.498 13.975,10.5 13.997,9.702 13.999,9.634 14.006,9.336 14.009,9.235 
	14.02,8.837 14.104,7.005 14.106,6.939 14.118,6.506 14.119,6.473 14.129,6.073 14.211,4.311 14.212,4.278 14.213,4.177 
	14.219,4.01 14.263,3.645 14.342,1.915 14.361,1.25 15.391,1.312 15.991,1.327 18.583,1.465 19.582,1.494 19.813,1.532 
	20.181,1.542 21.112,1.567 21.546,1.58 21.711,1.617 22.209,1.631 23.409,1.664 23.808,1.674 25.67,1.758 26.169,1.773 
	26.933,1.826 27.034,1.829 27.566,1.843 27.701,1.847 28.033,1.855 28.365,1.864 28.831,1.878 29.229,1.889 30.493,1.957 
	31.892,1.994 32.491,2.011 32.657,2.015 32.691,2.016 32.724,2.017 32.79,2.019 32.858,2.021 33.422,2.036 33.688,2.043 
	34.155,2.057 34.754,2.072 34.821,2.074 34.954,2.078 36.518,2.121 37.948,2.16 38.914,2.186 40.944,2.242 42.775,2.291 
	43.207,2.303 43.672,2.317 43.738,2.318 44.504,2.339 46.435,2.392 46.468,2.393 46.535,2.394 46.568,2.395 46.601,2.396 
	46.634,2.397 46.667,2.398 46.701,2.399 47.034,2.408 47.133,2.411 47.632,2.424 47.833,2.43 47.866,2.431 48.1,2.437 48.365,2.445 
	48.399,2.445 48.498,2.448 48.597,2.45 49.729,2.481 49.763,2.482 49.829,2.484 50.329,2.466 50.661,2.475 50.729,2.477 
	54.492,2.513 55.09,2.53 56.022,2.522 56.089,2.524 56.29,2.53 56.354,2.53 56.755,2.542 56.955,2.547 57.188,2.553 57.421,2.527 
	57.556,2.53 57.621,2.532 57.654,2.566 57.917,2.64 57.951,2.641 58.317,2.652 58.518,2.657 58.75,2.663 58.983,2.636 59.417,2.648 
	59.615,2.653 59.851,2.659 60.281,2.671 61.481,2.671 61.647,2.675 61.847,2.682 62.279,2.66 62.479,2.666 62.713,2.672 
	62.88,2.676 62.913,2.677 62.946,2.678 63.379,2.689 63.612,2.696 64.445,2.686 64.978,2.7 65.145,2.704 66.276,2.702 66.342,2.704 
	67.174,2.693 67.309,2.697 68.208,2.722 68.34,2.725 68.407,2.727 69.772,2.698 70.072,2.707 71.138,2.702 71.172,2.703 
	71.205,2.704 71.405,2.709 71.47,2.71 71.67,2.717 71.905,2.689 72.536,2.708 72.603,2.709 72.802,2.714 72.97,2.719 73.603,2.703 
	75.267,2.714 75.255,3.147 75.25,3.314 75.259,4.247 75.251,4.58 75.25,4.647 75.247,4.713 75.276,4.847 75.261,5.413 75.275,6.112 
	75.273,6.179 75.278,7.212 75.27,7.545 75.275,8.545 75.272,9.877 75.261,10.276 75.284,10.678 75.263,11.443 75.277,12.109 
	75.267,12.509 75.285,13.075 75.27,13.607 75.292,13.942 75.294,15.108 75.283,15.541 75.277,15.74 75.302,16.107 75.288,17.84 
	75.275,18.272 75.289,19.006 75.282,19.238 75.275,19.506 75.306,19.573 75.305,19.605 75.302,19.705 75.282,20.439 75.281,20.471 
	75.278,20.571 75.307,20.806 75.293,21.271 75.286,21.571 75.304,22.038 75.296,22.304 75.292,22.504 75.278,23.002 75.276,23.036 
	75.304,23.336 75.293,23.703 75.292,23.737 75.292,23.803 75.288,23.936 75.286,24.003 75.279,24.235 75.306,24.438 75.302,24.568 
	75.299,24.668 75.296,24.769 75.293,24.902 75.292,24.935 75.281,25.335 75.309,25.569 75.304,25.769 75.297,26.002 75.292,26.201 
	75.287,26.401 75.281,26.601 75.28,26.634 75.307,26.868 75.302,27.001 75.294,27.3 75.292,27.368 75.29,27.468 75.289,27.535 
	75.288,27.567 75.312,27.901 75.311,27.934 75.308,28.034 75.307,28.101 75.303,28.233 75.298,28.4 75.292,28.633 75.32,28.833 
	75.313,29.067 75.308,29.266 75.302,29.5 75.295,29.733 75.293,29.799 75.323,29.933 75.315,30.167 75.309,30.4 75.306,30.532 
	75.312,32.765 75.32,33.665 75.332,34.499 75.316,35.031 75.312,35.198 75.333,35.665 75.328,35.863 75.321,36.097 75.315,36.33 
	75.309,36.529 75.329,39.429 75.306,40.293 75.323,40.96 75.326,45.692 75.308,47.556 75.324,48.224 75.337,48.923 75.337,50.122 
	75.33,51.588 75.329,51.622 75.314,52.189 75.321,53.118 75.32,53.187 75.333,53.919 75.329,54.053 75.313,54.652 75.308,54.852 
	75.333,56.352 75.331,56.418 75.328,56.518 75.326,56.584 75.323,56.717 75.31,57.184 75.329,57.718 75.328,57.751 75.326,57.818 
	75.326,57.852 75.324,57.884 75.311,59.614 75.326,60.25 75.331,61.314 75.319,61.782 75.312,62.013 75.303,62.347 75.302,62.381 
	75.33,64.948 75.335,66.013 75.314,66.78 75.31,66.944 75.312,68.079 75.312,68.112 75.31,68.177 75.308,68.244 75.327,68.778 
	75.302,72.109 75.32,76.373 75.295,77.238 75.294,77.304 75.289,77.504 75.303,78.17 75.297,78.371 75.292,79.803 75.307,80.537 
	75.302,80.704 75.294,80.969 75.28,81.468 75.275,81.667 75.275,84.101 75.285,86.166 75.284,86.201 75.276,86.465 75.282,88.73 
	72.285,88.682 72.019,88.674 71.718,88.7 69.487,88.672 69.355,88.669 69.254,88.667 69.056,88.661 69.022,88.659 68.922,88.69 
	68.888,88.69 68.821,88.687 68.753,88.685 68.621,88.682 68.589,88.681 68.555,88.681 68.522,88.68 68.387,88.675 67.889,88.663 
	65.591,88.666 65.125,88.653 64.627,88.639 63.993,88.656 63.46,88.64 62.894,88.625 62.861,88.625 61.129,88.611 61.063,88.61 
	60.23,88.586 56.901,88.562 54.804,88.538 53.505,88.501 53.007,88.488 52.773,88.481 52.541,88.508 52.275,88.501 51.841,88.491 
	51.31,88.475 51.01,88.467 50.642,88.492 50.609,88.491 50.342,88.483 50.177,88.479 49.877,88.47 48.912,88.444 48.254,88.191 
	45.156,86.942 42.652,85.94 41.862,85.619 37.281,83.795 33.855,82.436 32.34,81.829 32.275,81.794 32.208,81.792 32.042,81.72 
	32.012,81.686 31.879,81.65 30.265,81.003 29.244,80.577 26.18,79.361 25.916,79.252 22.622,77.965 21.469,77.466 19.987,76.858 
	17.946,76.003 14.685,74.648 14.291,74.504 10.964,73.116 8.363,72.01 5.202,70.692 4.412,70.37 3.491,69.979 2.468,69.551 
	2.008,69.372 1.646,69.228 1.25,69.052 1.251,69.019 1.285,68.985 1.253,68.919 1.254,68.886 1.29,68.853 1.322,68.854 
	1.356,68.854 1.356,68.82 1.391,68.79 1.392,68.754 1.392,68.721 1.328,68.652 1.296,68.618 1.331,68.553 1.366,68.488 
	1.435,68.423 1.436,68.392 1.402,68.358 1.405,68.29 1.405,68.257 1.439,68.257 1.54,68.226 1.541,68.193 1.573,68.194 1.574,68.16 
	1.576,68.126 1.577,68.093 1.577,68.06 1.546,68.028 1.513,67.993 1.445,68.024 1.378,68.023 1.347,67.988 1.348,67.955 
	1.381,67.922 1.449,67.858 1.484,67.825 1.484,67.793 1.453,67.757 1.454,67.724 1.455,67.691 1.489,67.66 1.524,67.591 
	1.524,67.558 1.493,67.492 1.494,67.458 1.427,67.457 1.427,67.423 1.398,67.324 1.401,67.19 1.436,67.125 1.537,67.095 
	1.571,67.096 1.603,67.129 1.635,67.13 1.771,67.1 1.773,67.032 1.774,67 1.807,66.967 1.875,66.937 1.976,66.871 2.01,66.84 
	2.011,66.808 2.012,66.773 2.013,66.741 2.083,66.642 2.149,66.61 2.251,66.512 2.253,66.48 2.254,66.447 2.288,66.414 2.29,66.314 
	2.499,66.019 2.5,65.986 2.501,65.92 2.604,65.79 2.64,65.725 2.674,65.692 2.709,65.592 2.71,65.56 2.849,65.396 2.884,65.333 
	2.917,65.333 3.046,65.469 3.113,65.47 3.18,65.472 3.213,65.473 3.312,65.51 3.347,65.51 3.444,65.547 3.578,65.55 3.612,65.551 
	3.643,65.586 3.676,65.586 3.776,65.589 3.875,65.625 3.941,65.661 3.975,65.626 4.01,65.561 4.409,65.573 4.413,65.439 
	4.646,65.479 4.649,65.345 4.814,65.35 4.981,65.355 4.985,65.255 5.151,65.259 5.122,65.126 5.091,64.993 5.092,64.959 
	5.094,64.892 5.098,64.76 5.133,64.727 5.134,64.66 5.235,64.595 5.269,64.564 5.27,64.531 5.338,64.466 5.34,64.433 5.408,64.368 
	5.509,64.335 5.576,64.304 5.61,64.273 5.679,64.242 5.781,64.145 5.848,64.082 5.952,63.983 6.031,63.519 6.032,63.451 
	6.033,63.418 6.075,63.122 6.076,63.087 6.078,63.022 6.08,62.955 5.951,62.818 5.918,62.784 5.886,62.713 5.856,62.615 
	5.889,62.582 5.891,62.517 5.961,62.451 5.996,62.385 5.998,62.318 5.999,62.286 6,62.252 6,62.218 6.001,62.185 6.002,62.153 
	5.97,62.084 5.937,62.051 5.903,62.05 5.804,62.08 5.771,62.08 5.739,62.046 5.74,62.011 5.707,61.912 5.712,61.745 5.686,61.544 
	5.654,61.476 5.654,61.444 5.622,61.411 5.622,61.376 5.623,61.343 5.591,61.342 5.56,61.241 5.495,61.206 "/>
<path fill="#010101" d="M221.698,44.571l-0.944,0.944l3.098,3.098l-3.098,3.098l0.944,0.944l4.042-4.042L221.698,44.571z"/>
<path fill="#010101" d="M95.401,44.571l-0.943,0.944l3.098,3.098l-3.098,3.098l0.943,0.944l4.042-4.042L95.401,44.571z"/>
</svg>
